<?xml version="1.0" encoding="utf-8"?>
<svg xmlns="http://www.w3.org/2000/svg">
  <defs>
    <font id="CustomFont" horiz-adv-x="600">
      <font-face font-family="CustomFont" font-weight="400"
        font-style="normal" units-per-em="1000"
        ascent="800" descent="-200"
        x-height="500" cap-height="700"
        bbox="0 -200 1000 800"/>
      <missing-glyph horiz-adv-x="500"/>
      <glyph unicode="A" glyph-name="uni0041" horiz-adv-x="1122" d="M 15.81 586.14 C 181.40 578.62 364.52 584.97 531.39 585.11 C 766.13 585.32 858.13 630.41 856.15 403.95 C 671.93 392.70 272.56 437.36 145.85 361.21 C -45.49 246.22 6.69 43.63 5.99 -194.34 L 253.75 -195.61 C 276.79 278.60 144.47 185.75 863.77 190.09 L 860.56 -192.42 L 1109.97 -194.49 C 1112.01 -31.91 1110.14 128.37 1111.03 288.57 C 1111.90 444.18 1134.37 608.25 1025.67 704.65 C 901.72 814.60 784.14 799.28 576.28 799.27 C 391.03 799.27 205.71 797.77 20.46 798.25 L 15.81 586.14 Z"/>
      <glyph unicode="Ё" glyph-name="uni0401" horiz-adv-x="838" d="M 189.88 91.84 C 223.54 108.28 619.98 99.44 662.56 99.46 L 659.38 248.11 C 580.60 244.97 500.33 250.45 420.54 248.94 C 392.73 248.43 209.01 235.54 190.87 256.60 C 197.17 405.04 212.10 388.39 429.00 388.51 C 563.38 388.59 698.70 390.00 832.97 387.55 L 832.62 550.76 C 710.80 548.96 291.09 558.38 210.54 546.40 C -31.47 510.38 0.95 312.03 1.98 174.32 C 2.91 47.04 -25.71 -166.30 212.07 -195.38 L 833.94 -197.37 L 833.09 -37.90 C 764.80 -38.11 298.10 -43.08 252.52 -34.12 C 183.69 -20.60 190.09 24.37 189.88 91.84 Z M 291.36 797.89 C 174.96 776.46 196.50 622.82 327.30 641.37 C 431.43 656.13 413.37 820.37 291.36 797.89 Z M 536.96 797.71 C 432.41 778.27 446.81 623.51 572.39 641.58 C 681.49 657.28 658.21 820.26 536.96 797.71 Z M 189.90 91.84 L 665.38 92.59 C 675.64 128.22 674.76 218.17 661.60 252.55 L 190.89 256.60 C 209.04 235.54 392.76 248.42 420.57 248.94 C 500.36 250.45 580.62 244.97 659.41 248.11 L 662.59 99.46 C 620.00 99.44 223.57 108.27 189.90 91.84 Z"/>
      <glyph unicode="Б" glyph-name="uni0411" horiz-adv-x="1122" d="M 248.24 18.04 L 249.36 195.95 C 370.15 193.01 491.96 197.85 610.51 197.46 C 717.52 197.11 867.11 223.95 870.40 109.66 C 873.84 -10.12 726.62 15.94 610.51 16.70 C 489.74 17.49 369.05 16.61 248.24 18.04 Z M 5.56 -195.38 C 225.81 -194.44 446.36 -194.31 666.64 -194.71 C 906.90 -195.16 1048.05 -186.75 1104.82 0.31 C 1161.59 187.52 1078.00 351.56 905.90 390.95 C 792.66 416.88 395.33 406.03 249.20 405.29 C 243.22 631.12 329.02 586.28 565.62 585.02 C 739.39 584.10 913.36 586.61 1087.07 583.03 L 1085.48 796.92 C 902.80 794.52 715.86 798.66 531.95 798.45 C 322.72 798.21 200.22 820.57 83.58 702.90 C -23.80 594.56 2.63 446.57 3.45 288.02 C 4.26 133.20 -5.03 -43.60 5.56 -195.38 Z"/>
      <glyph unicode="В" glyph-name="uni0412" horiz-adv-x="1111" d="M 250.81 199.07 C 369.35 199.66 487.79 201.11 606.35 200.75 C 707.87 200.45 853.57 219.24 857.89 113.26 C 862.57 -1.58 707.77 22.32 606.35 22.66 C 486.98 23.08 366.15 23.70 246.39 22.26 L 250.81 199.07 Z M 248.96 584.00 C 368.06 583.38 487.23 584.51 606.35 584.98 C 710.25 585.38 852.71 605.29 857.14 494.85 C 861.51 385.89 714.39 404.63 606.35 404.81 C 486.73 405.00 366.50 404.30 247.05 406.22 L 248.96 584.00 Z M 2.49 -189.73 C 161.65 -187.07 779.16 -198.19 873.43 -182.68 C 992.00 -163.18 1070.14 -94.37 1095.80 6.74 C 1113.88 77.88 1111.72 186.90 1065.06 253.54 L 1021.58 304.37 C 1020.55 305.52 1018.11 308.00 1016.57 309.93 C 1113.00 385.30 1121.16 498.32 1089.81 608.80 C 1021.98 847.72 690.06 794.97 439.68 795.21 C 293.46 795.35 146.05 793.33 0.00 794.90 L 2.49 -189.73 Z"/>
      <glyph unicode="Г" glyph-name="uni0413" horiz-adv-x="1010" d="M 0.64 -190.79 L 250.49 -189.56 C 268.44 628.69 136.20 582.72 593.92 582.10 C 711.82 581.93 891.65 572.72 1002.04 583.66 L 1001.20 794.06 C 849.20 806.51 638.94 795.44 482.81 795.98 C 0.54 797.61 -0.39 641.62 0.40 280.12 C 0.75 123.15 -0.83 -33.81 0.64 -190.79 Z"/>
      <glyph unicode="Д" glyph-name="uni0414" horiz-adv-x="1340" d="M 889.84 546.32 L 890.77 49.17 L 398.95 49.77 C 422.73 119.33 446.72 142.63 449.69 229.63 C 461.22 566.20 369.49 555.06 889.84 546.32 Z M 111.47 49.49 L 33.65 49.31 C 14.80 49.38 -0.16 40.92 0.00 24.03 L 0.02 -194.41 L 1330.85 -195.50 L 1330.76 14.38 C 1330.48 36.17 1313.35 48.89 1288.18 49.86 L 1168.94 49.27 L 1167.86 701.39 C 1167.71 792.99 1150.32 800.01 1063.82 800.00 L 598.78 799.91 C 475.62 799.90 369.07 771.58 287.47 705.34 C 74.23 532.28 234.27 313.88 111.47 49.49 Z"/>
      <glyph unicode="Е" glyph-name="uni0415" horiz-adv-x="1112" d="M 1100.80 -197.90 L 1102.88 16.91 C 1027.58 15.03 390.26 8.75 334.62 22.05 C 242.94 43.98 250.73 99.68 250.72 191.74 L 869.99 194.07 L 875.42 401.56 L 258.56 399.61 C 190.40 616.45 396.47 581.44 569.68 581.82 C 747.47 582.21 925.33 583.56 1103.08 580.41 L 1102.69 797.68 C 950.36 796.56 375.74 806.05 278.64 793.15 C -40.60 750.77 1.05 470.25 2.55 297.83 C 3.97 136.21 -41.82 -144.95 271.99 -190.92 C 395.82 -209.05 902.78 -188.62 1100.80 -197.90 Z"/>
      <glyph unicode="Ж" glyph-name="uni0416" horiz-adv-x="1296" d="M 167.17 305.62 C 92.67 230.44 73.88 209.04 54.85 86.81 C 40.81 -3.32 20.93 -99.48 9.17 -189.12 L 258.39 -190.40 C 337.27 124.32 200.68 200.26 522.82 192.13 L 524.94 -189.34 L 760.47 -190.82 L 763.65 193.58 C 894.37 188.91 974.37 212.47 992.21 83.22 C 1004.02 -2.21 1011.05 -112.93 1039.63 -189.76 L 1273.84 -191.29 C 1277.17 -123.79 1250.19 19.21 1239.61 93.31 C 1221.69 218.88 1193.59 238.70 1118.84 308.52 C 1248.41 396.13 1247.29 607.72 1289.61 798.36 L 1033.53 796.81 C 1025.96 714.85 1002.22 610.91 987.25 522.01 C 967.25 403.35 906.56 387.85 764.04 407.00 L 760.61 800.00 L 518.28 797.57 L 521.57 403.67 C 368.02 405.53 319.45 383.87 298.33 519.86 C 284.74 607.38 261.19 716.17 256.37 799.44 L 0.00 797.21 C 20.79 706.85 34.85 615.21 52.57 522.24 C 73.85 410.58 101.35 358.55 167.17 305.62 Z"/>
      <glyph unicode="З" glyph-name="uni0417" horiz-adv-x="1101" d="M 764.74 408.73 C 719.37 380.90 347.35 394.83 264.61 400.17 L 266.11 195.51 C 324.50 199.67 763.09 207.39 771.05 185.74 C 858.56 168.75 858.11 68.26 799.26 34.86 C 748.27 5.90 88.58 19.02 4.33 20.07 L 1.60 -189.80 C 175.34 -194.19 717.07 -207.71 857.42 -182.97 C 969.52 -163.21 1051.08 -89.71 1076.67 6.42 C 1126.20 192.65 1051.02 240.20 998.37 311.88 C 1085.96 348.02 1101.42 485.07 1078.53 593.38 C 1056.18 699.04 984.37 763.54 864.07 786.50 C 733.42 811.42 166.47 795.00 0.00 790.87 L 3.21 581.37 C 189.89 562.37 725.63 602.44 797.29 560.95 C 853.87 528.19 856.87 418.51 764.74 408.73 Z M 771.04 185.74 C 763.07 207.39 324.49 199.68 266.09 195.51 L 264.59 400.17 C 347.33 394.83 719.35 380.90 764.73 408.73 L 256.39 406.66 L 256.56 192.64 L 771.04 185.74 Z"/>
      <glyph unicode="И" glyph-name="uni0418" horiz-adv-x="1111" d="M 319.25 28.98 C 234.49 42.19 251.12 101.97 251.81 175.41 L 256.28 795.36 L 0.00 792.30 C 21.67 637.40 3.66 355.47 4.76 185.23 C 5.74 30.33 13.90 -175.99 285.45 -190.87 C 534.55 -204.52 570.03 -46.74 627.16 129.10 L 745.45 495.50 C 764.90 551.58 758.97 583.52 833.78 578.57 C 878.75 506.22 846.59 -42.66 855.50 -184.69 L 1098.21 -186.75 C 1101.12 15.28 1099.73 218.10 1101.03 420.35 C 1102.05 577.60 1107.84 791.54 830.23 799.73 C 585.67 806.94 548.08 667.60 492.35 493.31 C 461.04 395.44 372.40 77.29 319.25 28.98 Z"/>
      <glyph unicode="Й" glyph-name="uni0419" horiz-adv-x="873" d="M 240.82 -22.13 C 184.41 -7.13 194.69 36.56 195.54 91.30 C 197.92 247.10 187.41 428.65 196.99 576.91 L 0.00 577.31 C 3.20 415.52 1.76 253.37 2.46 91.32 C 2.99 -33.05 15.98 -194.00 231.94 -196.74 C 419.63 -199.11 445.46 -74.18 489.56 64.39 L 581.84 344.66 C 595.40 387.28 594.50 410.15 651.93 405.98 C 692.09 358.44 673.80 198.83 673.91 122.11 C 674.06 17.27 675.70 -88.99 674.36 -193.66 L 868.16 -192.62 C 872.20 -32.50 869.29 130.51 870.63 291.45 C 871.94 450.36 835.18 573.29 651.10 583.72 C 414.68 597.11 392.47 387.25 320.67 152.00 C 304.30 98.39 285.16 0.60 240.82 -22.13 Z M 199.98 654.87 L 645.92 651.31 L 644.35 800.00 L 199.22 797.82 L 199.98 654.87 Z"/>
      <glyph unicode="К" glyph-name="uni041A" horiz-adv-x="1102" d="M 3.97 -192.13 L 250.17 -190.90 L 249.67 191.53 C 779.95 182.85 734.85 275.90 835.05 -190.76 L 1095.94 -190.16 C 1089.06 -116.23 1048.85 10.12 1030.16 87.91 C 1002.50 203.03 971.54 240.22 894.04 298.92 C 1051.49 389.85 1048.59 603.81 1085.95 800.00 L 819.05 797.74 C 796.92 375.27 775.47 379.65 251.67 403.35 L 247.67 796.14 L 0.00 799.54 L 3.97 -192.13 Z"/>
      <glyph unicode="Л" glyph-name="uni041B" horiz-adv-x="1204" d="M 0.00 -196.22 L 248.70 -195.79 C 286.10 -144.90 419.76 316.14 455.47 432.01 C 479.81 510.98 498.11 581.09 596.57 581.59 C 701.05 582.10 718.12 521.71 740.35 444.24 C 761.70 369.79 785.43 301.34 807.34 226.17 C 829.39 150.53 915.08 -151.18 944.59 -195.27 L 1195.09 -196.25 C 1171.46 -88.26 1048.30 267.59 1006.09 402.06 C 935.59 626.62 897.48 802.77 596.62 799.97 C 225.57 796.51 227.17 487.89 96.65 105.65 C 65.64 14.83 18.38 -108.06 0.00 -196.22 Z"/>
      <glyph unicode="М" glyph-name="uni041C" horiz-adv-x="1414" d="M 0.00 -191.71 L 247.17 -193.71 C 252.71 30.91 240.92 258.34 246.69 483.41 C 247.85 529.02 253.93 591.69 314.94 577.51 C 424.80 551.97 393.51 48.61 635.91 -1.37 C 765.34 -28.07 861.63 15.27 903.78 96.67 L 1040.65 485.46 C 1062.56 549.00 1057.46 587.17 1141.82 570.47 C 1174.29 516.40 1161.55 -77.74 1157.14 -188.61 L 1403.52 -192.59 C 1405.17 -10.23 1403.49 168.24 1403.71 346.70 C 1403.91 528.76 1422.69 696.81 1263.88 767.52 C 1146.42 819.84 926.61 813.83 847.36 645.71 C 814.86 576.75 802.17 504.16 777.29 433.39 C 757.37 376.68 734.41 268.78 708.92 222.30 L 684.25 265.76 C 678.14 284.40 673.55 303.84 668.52 320.41 L 566.25 642.19 C 508.13 767.60 337.32 845.96 150.51 770.28 C -15.43 703.06 1.33 538.34 0.14 356.49 C -1.03 177.77 8.90 -15.22 0.00 -191.71 Z"/>
      <glyph unicode="Н" glyph-name="uni041D" horiz-adv-x="1102" d="M 1.50 -196.52 L 250.03 -195.38 L 249.11 190.45 L 845.59 188.87 L 850.59 -191.01 L 1096.76 -197.75 L 1098.77 800.00 L 848.94 798.72 L 850.65 403.65 L 249.81 397.26 L 248.64 798.43 L 0.00 798.98 L 1.50 -196.52 Z"/>
      <glyph unicode="О" glyph-name="uni041E" horiz-adv-x="1160" d="M 252.37 136.41 C 244.79 219.92 249.43 332.18 250.45 418.06 C 252.99 631.61 391.02 586.82 710.86 587.28 C 832.69 587.46 903.19 580.76 912.37 466.69 C 919.25 381.40 913.60 272.38 912.99 184.82 C 911.57 -23.66 782.16 17.03 446.67 17.70 C 338.39 17.93 260.87 42.70 252.37 136.41 Z M 302.02 791.67 C 140.33 773.63 41.71 684.68 12.38 549.26 C -1.97 483.07 -16.93 76.03 48.90 -30.15 C 73.69 -70.12 79.62 -72.36 112.07 -100.59 C 170.75 -151.65 209.52 -173.69 302.51 -184.93 C 401.28 -196.87 758.13 -198.11 857.44 -186.09 C 1015.12 -167.01 1116.64 -78.55 1145.77 53.00 C 1162.91 130.41 1163.44 473.01 1147.22 549.77 C 1118.66 685.03 1016.87 775.87 859.47 791.66 C 753.21 802.32 405.38 803.23 302.02 791.67 Z"/>
      <glyph unicode="П" glyph-name="uni041F" horiz-adv-x="1131" d="M 5.46 -198.49 L 252.61 -199.40 C 256.46 630.93 172.00 583.42 561.98 583.89 C 860.76 584.24 870.98 603.58 869.90 333.85 C 869.18 156.16 869.74 -21.92 870.07 -199.61 L 1113.60 -197.57 C 1113.94 22.32 1133.89 328.34 1110.91 532.88 C 1098.61 642.38 1036.99 724.16 948.71 762.74 C 835.93 812.03 288.11 811.56 182.82 766.42 C -54.45 664.73 7.67 393.76 6.50 177.10 C 5.83 52.00 7.14 -73.45 5.46 -198.49 Z"/>
      <glyph unicode="Р" glyph-name="uni0420" horiz-adv-x="1141" d="M 774.15 403.00 C 709.59 382.12 467.98 389.39 383.97 397.69 L 382.99 195.20 L 848.64 199.24 C 1073.02 190.51 1203.43 437.56 1102.81 636.53 C 1002.43 835.00 761.06 797.37 482.33 796.80 C 281.67 796.40 28.26 792.40 9.31 509.24 C 1.56 393.57 -8.14 -107.15 11.78 -197.85 L 244.56 -198.94 C 298.73 -56.02 188.48 493.21 299.49 564.23 C 358.78 602.16 638.33 584.80 738.49 584.62 C 819.26 584.47 873.89 576.20 885.04 510.18 C 898.13 432.58 854.02 400.43 774.15 403.00 Z"/>
      <glyph unicode="С" glyph-name="uni0421" horiz-adv-x="1030" d="M 1026.45 -192.09 L 1028.09 16.87 C 846.29 13.13 661.37 16.25 479.32 16.18 C 214.38 16.09 249.89 79.09 248.30 299.11 C 246.83 501.75 214.76 585.82 468.27 585.68 C 644.44 585.58 856.29 576.40 1028.21 587.79 L 1027.63 794.13 C 875.65 798.27 369.00 809.30 249.54 783.16 C -29.71 722.04 0.14 476.47 1.58 299.11 C 2.96 127.10 -24.04 -117.64 254.00 -180.73 C 383.70 -210.16 860.20 -191.52 1026.45 -192.09 Z"/>
      <glyph unicode="Т" glyph-name="uni0422" horiz-adv-x="990" d="M 0.00 588.86 C 65.56 587.79 256.42 596.01 301.03 579.95 C 381.05 551.13 365.50 455.44 365.07 367.24 C 364.17 179.11 363.95 -10.10 365.23 -198.21 L 614.63 -196.85 C 615.69 -62.40 595.32 504.88 620.40 587.10 L 985.60 588.48 C 957.26 784.60 839.08 801.86 614.49 799.86 C 410.31 798.05 205.88 799.65 1.74 797.72 L 0.00 588.86 Z"/>
      <glyph unicode="У" glyph-name="uni0423" horiz-adv-x="1131" d="M 868.13 252.20 C 862.24 29.10 895.01 15.13 624.50 15.16 C 549.41 15.18 439.99 10.33 368.66 16.57 C 272.56 24.97 266.00 71.88 261.29 146.67 L 22.24 145.25 C 28.97 -47.58 81.29 -162.47 290.10 -189.59 C 396.18 -203.37 819.89 -203.00 909.26 -174.57 C 1095.84 -115.23 1117.19 17.95 1117.29 223.57 C 1117.36 392.95 1132.78 639.56 1112.66 800.00 L 865.95 797.86 L 864.42 463.22 C 704.51 465.76 524.19 455.60 368.05 463.86 C 193.13 473.11 266.91 669.16 247.19 799.45 L 14.46 798.90 C -89.81 90.93 387.83 281.94 868.13 252.20 Z"/>
      <glyph unicode="Ф" glyph-name="uni0424" horiz-adv-x="1172" d="M 692.35 548.27 C 979.02 572.50 953.09 530.20 955.73 306.94 C 958.80 47.33 982.66 61.72 689.93 63.91 L 692.35 548.27 Z M 211.02 382.18 C 211.02 562.22 242.74 556.51 491.39 550.45 L 493.42 62.56 C 185.41 74.92 211.02 12.97 211.02 382.18 Z M 490.37 729.39 C 61.94 734.20 -0.54 692.98 1.25 306.94 C 1.93 160.64 -18.39 44.89 82.40 -44.84 C 190.26 -140.90 317.00 -111.28 490.58 -117.66 L 492.26 -193.57 L 689.49 -195.72 L 690.84 -116.62 C 844.72 -113.22 990.28 -135.35 1085.93 -50.55 C 1185.15 37.42 1164.88 163.68 1164.54 306.94 C 1164.23 441.47 1184.27 576.24 1088.17 658.10 C 982.05 748.50 857.36 730.85 689.24 729.16 L 688.79 799.94 L 491.38 800.00 L 490.37 729.39 Z"/>
      <glyph unicode="Х" glyph-name="uni0425" horiz-adv-x="1111" d="M 298.86 307.06 C 271.26 262.30 223.66 268.04 120.43 83.72 C 75.23 3.02 30.95 -102.29 0.00 -191.48 C 305.41 -190.72 217.13 -241.35 356.48 22.82 C 394.37 94.64 450.46 182.65 541.96 190.09 C 732.48 205.56 767.42 -95.03 861.40 -188.87 L 1103.66 -190.25 C 1066.29 -69.39 930.74 228.31 802.36 288.71 L 826.00 313.72 C 910.75 396.69 921.26 406.61 979.31 521.71 C 1010.89 584.28 1083.42 735.59 1096.02 800.00 L 850.29 797.12 C 761.04 700.54 741.98 408.72 550.63 411.82 C 361.66 414.90 336.53 692.49 250.30 796.23 L 9.01 797.97 C 9.45 758.10 94.99 574.97 118.65 529.41 C 165.06 440.03 221.61 344.26 298.86 307.06 Z"/>
      <glyph unicode="Ц" glyph-name="uni0426" horiz-adv-x="1054" d="M 832.56 -78.50 L 833.00 -197.51 L 1043.71 -198.45 L 1046.19 107.75 L 931.84 111.26 L 930.91 800.00 L 715.50 798.62 L 710.41 110.84 C 55.32 117.33 251.08 -14.42 217.59 799.02 L 7.28 799.62 C -7.08 688.34 4.36 522.35 3.67 404.39 C 2.99 292.55 -14.96 118.94 46.89 33.70 C 115.25 -60.49 207.75 -75.75 369.16 -76.41 C 524.04 -77.03 677.56 -76.07 832.56 -78.50 Z"/>
      <glyph unicode="Ч" glyph-name="uni0427" horiz-adv-x="1091" d="M 838.28 179.88 L 841.02 -190.33 L 1090.57 -189.81 L 1090.87 799.61 L 846.35 799.72 L 841.37 396.12 C 759.99 394.00 380.74 386.78 333.10 401.50 C 255.71 425.43 252.71 482.87 253.60 567.55 C 254.39 643.96 255.77 723.70 252.13 799.85 L 8.77 800.00 C -58.31 47.59 263.42 205.31 838.28 179.88 Z"/>
      <glyph unicode="Ш" glyph-name="uni0428" horiz-adv-x="1253" d="M 743.26 16.00 C 740.65 20.07 736.35 21.92 732.65 38.93 L 730.57 796.59 L 495.60 799.82 L 497.09 205.70 C 497.35 172.90 497.48 140.50 497.13 107.70 C 496.40 39.64 507.27 34.46 483.76 20.25 C 387.15 16.94 266.17 -2.68 244.01 76.22 C 220.76 119.23 230.54 700.90 234.72 796.95 L 0.31 799.52 L 0.00 47.97 C 4.63 -157.78 205.90 -191.91 377.44 -192.35 C 513.56 -192.71 925.22 -206.47 1029.16 -182.89 C 1118.32 -162.67 1175.12 -109.99 1209.23 -47.49 C 1253.05 32.79 1243.09 121.20 1242.87 215.49 C 1242.41 406.59 1249.82 609.78 1239.83 799.37 L 1000.20 800.00 C 981.31 648.25 1014.83 119.58 986.27 60.34 C 953.49 -7.69 837.35 23.96 743.26 16.00 Z"/>
      <glyph unicode="Щ" glyph-name="uni0429" horiz-adv-x="1239" d="M 673.82 113.93 C 661.12 125.01 667.41 111.54 660.53 132.66 L 659.06 192.54 C 659.38 221.15 659.40 249.77 659.31 278.38 L 659.90 795.33 L 456.62 797.34 C 463.06 686.30 456.98 562.58 456.74 450.04 C 456.62 392.80 456.37 335.61 456.04 278.38 L 452.47 125.66 C 452.15 123.99 450.09 118.18 449.80 119.28 C 449.53 120.36 447.73 115.27 446.65 113.29 C 126.09 120.18 241.68 61.31 218.32 796.29 L 3.46 799.53 C -4.25 659.87 3.35 505.32 3.25 364.21 C 3.15 220.18 -13.88 73.33 84.23 -8.61 C 184.41 -92.28 353.92 -69.79 516.52 -69.47 C 685.41 -69.15 857.83 -72.58 1026.09 -69.81 L 1026.84 -189.69 L 1236.17 -191.47 L 1238.29 114.30 L 1122.37 115.23 L 1121.19 798.38 L 906.12 800.00 L 904.42 115.44 L 673.82 113.93 Z"/>
      <glyph unicode="Ъ" glyph-name="uni042A" horiz-adv-x="1263" d="M 462.99 235.84 C 574.82 240.61 694.60 236.60 807.40 236.92 C 921.95 237.24 1013.52 236.16 1014.09 125.74 C 1014.71 8.59 914.91 12.65 796.27 13.56 C 684.81 14.42 573.19 14.72 463.27 15.19 L 462.99 235.84 Z M 1.66 592.33 L 218.75 589.40 L 218.95 -193.62 C 431.26 -195.95 642.72 -192.37 851.93 -192.48 C 1062.44 -192.59 1198.32 -143.09 1241.85 17.95 C 1290.91 199.45 1217.79 357.45 1075.53 411.51 C 949.16 459.54 622.65 441.27 464.48 442.48 L 460.47 798.85 L 0.00 800.00 L 1.66 592.33 Z"/>
      <glyph unicode="Ы" glyph-name="uni042B" horiz-adv-x="1340" d="M 236.25 14.90 L 237.42 234.26 C 489.13 233.00 756.23 278.79 758.10 125.73 C 760.10 -36.92 518.82 21.61 236.25 14.90 Z M 721.21 -181.92 C 841.57 -181.19 932.56 -98.23 968.09 -21.25 C 1010.15 69.85 1011.96 218.21 952.79 298.40 C 798.26 507.80 549.27 410.79 251.04 439.38 C 232.17 445.73 230.20 420.45 232.65 513.70 L 235.03 790.32 L 0.00 789.33 L 2.12 -188.92 L 721.21 -181.92 Z M 1081.54 -186.29 L 1312.39 -187.60 L 1311.74 786.41 L 1077.03 789.22 L 1077.42 28.87 L 1081.54 -186.29 Z M 1077.43 28.87 L 1077.05 789.22 L 1311.76 786.41 L 1312.41 -187.60 L 1081.56 -186.29 L 1077.43 28.87 Z M 1076.09 -192.43 L 1319.26 -195.90 C 1334.02 -95.89 1335.60 715.00 1315.60 793.23 C 1252.43 799.60 1126.74 805.36 1068.62 791.35 C 1060.23 669.56 1053.63 -116.51 1076.09 -192.43 Z"/>
      <glyph unicode="Ь" glyph-name="uni042C" horiz-adv-x="1061" d="M 254.84 14.14 L 252.21 233.31 C 359.60 238.45 473.38 235.42 582.21 236.09 C 701.70 236.84 804.05 245.36 807.18 126.98 C 810.32 7.67 705.13 12.46 593.36 12.55 C 481.52 12.65 366.14 9.45 254.84 14.14 Z M 0.00 -193.48 C 212.67 -191.67 425.60 -191.68 637.75 -193.12 C 746.20 -193.86 832.06 -190.59 911.87 -144.11 C 1126.71 -18.93 1096.16 332.90 864.27 414.87 C 730.40 462.19 415.90 433.40 251.21 442.59 L 247.71 799.54 L 4.68 800.00 L 0.00 -193.48 Z"/>
      <glyph unicode="Э" glyph-name="uni042D" horiz-adv-x="1101" d="M 1.75 583.52 C 168.22 592.36 357.97 585.35 528.12 585.37 C 738.75 585.39 861.62 626.04 843.78 406.97 L 268.74 405.72 L 271.96 198.98 L 849.28 198.47 C 841.10 4.08 828.32 15.47 528.12 14.51 C 356.83 13.96 179.58 10.78 8.84 15.32 L 5.32 -195.95 C 132.31 -196.22 748.27 -202.80 822.65 -190.52 C 1124.77 -140.68 1091.23 113.27 1091.37 293.28 C 1091.49 469.66 1133.44 736.10 835.66 788.76 C 733.87 806.77 152.06 797.39 0.00 798.75 L 1.75 583.52 Z"/>
      <glyph unicode="Ю" glyph-name="uni042E" horiz-adv-x="1414" d="M 727.07 583.80 C 782.77 593.90 951.49 588.29 1018.73 587.40 C 1127.77 585.98 1168.46 557.25 1172.47 461.68 C 1176.07 375.94 1172.48 283.10 1172.25 196.59 C 1171.68 -3.27 1126.17 8.12 784.30 15.98 C 579.31 20.68 630.74 172.15 630.45 412.32 C 630.35 495.91 636.31 567.35 727.07 583.80 Z M 0.91 -189.43 C 74.06 -189.63 178.58 -202.60 246.64 -182.78 L 247.69 199.43 L 390.99 198.04 C 378.20 -216.24 660.03 -192.23 951.49 -193.10 C 1380.88 -194.36 1412.90 -65.57 1414.08 294.65 C 1415.20 639.50 1399.41 799.55 973.71 798.36 C 817.98 797.93 629.70 816.32 524.53 739.70 C 414.52 659.54 384.35 571.56 389.36 407.04 L 246.96 407.62 L 248.43 793.28 L 0.00 797.57 L 0.91 -189.43 Z"/>
      <glyph unicode="Я" glyph-name="uni042F" horiz-adv-x="1140" d="M 508.37 198.50 C 507.16 -10.66 473.38 13.49 11.96 19.11 L 15.28 -185.22 C 210.22 -186.24 511.91 -218.81 635.84 -114.74 C 791.39 15.87 742.09 184.88 747.70 401.17 C 630.73 422.26 301.51 365.82 252.19 448.18 C 141.44 633.07 545.10 589.95 642.02 589.54 C 735.68 589.15 829.16 607.10 867.48 544.10 C 893.12 501.96 884.04 363.43 883.84 306.44 C 883.25 146.76 880.65 -25.33 888.41 -184.07 L 1126.48 -185.73 C 1141.46 -97.06 1138.71 479.24 1121.57 566.23 C 1066.69 844.93 758.79 796.16 532.02 797.52 C 315.37 798.80 11.62 823.59 0.33 510.45 C -12.08 166.41 331.93 205.59 508.37 198.50 Z"/>
      <glyph unicode="а" glyph-name="uni0430" horiz-adv-x="1235" d="M 928.84 186.23 C 939.38 22.33 857.81 53.76 683.96 55.55 C 615.42 56.26 347.68 42.45 309.99 72.82 C 266.80 107.64 290.04 168.78 335.48 182.62 C 386.60 198.20 865.35 189.47 928.84 186.23 Z M 40.59 552.37 C 210.58 557.60 389.20 551.91 561.75 552.67 C 730.41 553.41 940.09 601.02 924.48 428.00 C 545.52 404.70 -4.15 538.34 0.02 114.84 C 1.78 -63.19 107.90 -172.49 303.29 -185.79 C 443.68 -195.34 806.73 -198.74 941.61 -184.90 C 1140.91 -164.48 1217.88 -47.59 1219.26 138.79 C 1220.44 297.60 1246.40 538.03 1166.30 659.72 C 1083.94 784.89 897.40 797.29 683.96 798.01 C 470.28 798.74 250.84 794.45 38.06 800.00 L 40.59 552.37 Z"/>
      <glyph unicode="б" glyph-name="uni0431" horiz-adv-x="896" d="M 491.62 -19.63 C 249.83 -19.34 213.72 -44.73 213.55 124.62 C 213.36 323.11 179.98 332.80 405.53 332.21 C 649.46 331.56 678.37 358.13 679.80 192.21 C 681.40 5.04 717.70 -19.90 491.62 -19.63 Z M 223.49 512.61 C 193.89 656.78 342.27 625.39 472.48 624.06 C 589.40 622.88 727.18 618.96 842.37 625.12 L 844.95 798.40 C 670.60 800.23 493.63 800.73 319.25 798.63 C -82.44 793.79 8.67 536.25 9.30 124.67 C 9.41 53.22 4.26 -29.61 43.00 -85.41 C 71.24 -126.08 133.86 -169.50 201.95 -182.77 C 267.51 -195.57 659.86 -195.97 721.49 -179.37 C 886.05 -135.06 888.17 -14.17 888.14 149.97 C 888.10 318.78 893.28 440.69 733.30 489.73 C 597.09 531.49 320.26 485.48 223.49 512.61 Z"/>
      <glyph unicode="в" glyph-name="uni0432" horiz-adv-x="1259" d="M 747.65 48.48 L 299.77 48.79 L 297.42 181.75 C 441.57 183.50 854.96 195.05 939.14 170.72 C 990.05 30.88 884.20 48.05 747.65 48.48 Z M 938.11 430.78 C 863.64 407.02 431.76 417.81 298.09 417.35 L 301.36 548.10 L 761.23 547.61 C 883.30 547.70 981.45 555.17 938.11 430.78 Z M 3.02 -191.90 L 951.33 -190.82 C 1270.75 -164.91 1333.37 135.86 1157.33 299.95 C 1248.94 388.26 1276.32 491.35 1225.62 613.25 C 1185.48 709.66 1084.14 774.59 949.18 787.02 C 675.39 812.24 287.34 792.46 0.00 795.09 L 3.02 -191.90 Z"/>
      <glyph unicode="г" glyph-name="uni0433" horiz-adv-x="1099" d="M 10.78 -188.32 L 301.70 -188.03 C 300.36 -79.41 281.90 446.90 329.45 503.26 C 403.32 590.80 933.63 543.30 1097.70 551.22 L 1096.70 794.92 C 924.88 803.83 729.71 798.36 555.78 798.10 C 360.28 797.79 215.95 800.15 108.28 698.45 C -44.39 554.24 8.26 49.72 10.78 -188.32 Z"/>
      <glyph unicode="д" glyph-name="uni0434" horiz-adv-x="1223" d="M 387.76 158.24 C 391.94 649.33 411.37 598.22 842.29 580.48 L 840.98 158.48 L 387.76 158.24 Z M 0.66 158.95 L 0.00 -193.24 L 253.68 -195.19 L 255.44 -56.69 C 343.39 -39.82 843.41 -48.06 954.63 -55.24 L 958.99 -193.04 L 1217.38 -194.54 L 1219.10 157.52 L 1090.30 157.86 L 1088.40 795.46 C 944.04 802.97 789.77 798.77 645.38 799.30 C 239.71 800.76 183.26 748.42 161.86 418.72 C 141.13 99.41 156.55 157.16 0.66 158.95 Z"/>
      <glyph unicode="е" glyph-name="uni0435" horiz-adv-x="1247" d="M 297.33 423.63 C 291.38 589.27 446.33 552.83 606.24 553.03 C 787.08 552.86 999.09 580.82 931.98 431.76 C 855.10 403.33 389.83 419.68 297.33 423.63 Z M 1215.53 -189.50 L 1214.56 48.05 C 1006.09 52.32 584.13 41.76 415.71 51.57 C 315.69 57.41 298.80 88.09 299.15 177.63 C 681.47 218.80 1243.68 50.78 1235.57 493.90 C 1232.32 671.67 1119.57 773.95 932.04 790.86 C 820.22 800.96 385.22 805.62 284.36 789.14 C 97.20 758.57 15.35 651.84 8.19 470.16 C 1.98 311.96 -22.83 60.09 61.84 -57.77 C 166.48 -203.48 322.15 -191.44 565.51 -191.27 C 778.97 -191.13 1003.43 -196.41 1215.53 -189.50 Z"/>
      <glyph unicode="ж" glyph-name="uni0436" horiz-adv-x="1600" d="M 138.83 302.06 C -6.31 194.13 10.55 7.76 1.59 -198.56 L 297.80 -196.31 C 331.51 165.67 231.85 178.00 655.88 182.32 L 655.42 -194.97 L 942.61 -196.20 L 943.20 178.27 C 1368.76 196.66 1265.71 143.02 1303.60 -192.19 L 1595.30 -195.88 C 1579.29 11.09 1608.19 206.12 1439.16 302.90 C 1506.14 355.37 1539.85 362.73 1562.84 501.00 C 1578.86 597.56 1583.79 701.72 1592.19 800.00 L 1301.10 798.82 C 1282.26 405.96 1263.79 398.45 942.17 422.40 L 941.32 798.82 L 653.89 798.94 L 655.75 418.82 C 270.79 416.86 331.42 400.63 297.34 798.17 L 0.00 798.07 C 11.44 600.94 14.41 408.71 138.83 302.06 Z"/>
      <glyph unicode="з" glyph-name="uni0437" horiz-adv-x="1160" d="M 6.75 548.94 C 249.57 539.93 506.60 555.36 752.45 548.43 C 900.30 544.26 902.86 412.64 752.82 412.29 C 625.39 411.98 495.45 412.83 368.02 415.22 L 369.97 183.63 C 734.11 187.89 921.15 224.13 839.66 57.20 C 689.48 29.99 186.19 44.85 0.00 49.20 L 0.67 -194.13 C 257.08 -180.60 668.42 -219.95 896.44 -184.97 C 1160.05 -144.53 1244.10 147.77 1038.13 296.57 C 1208.10 388.90 1203.61 730.97 906.10 782.17 C 739.55 810.82 200.23 797.63 5.97 792.27 L 6.75 548.94 Z"/>
      <glyph unicode="и" glyph-name="uni0438" horiz-adv-x="1198" d="M 291.18 87.59 C 250.45 130.12 270.51 683.49 271.64 784.97 L 0.00 786.02 L 6.62 51.33 C 9.22 -195.88 426.52 -284.08 587.34 -80.31 C 689.04 48.55 749.51 435.70 839.70 554.20 C 949.91 544.71 907.05 430.86 907.68 218.19 C 908.09 87.47 900.44 -58.94 910.50 -187.50 L 1190.89 -185.39 C 1202.71 21.18 1194.64 252.68 1193.68 457.91 C 1192.71 666.22 1111.60 807.23 861.29 799.71 C 611.49 792.19 577.76 647.18 512.64 463.76 C 482.21 378.04 452.67 300.92 425.76 217.48 C 408.28 163.21 352.42 -40.19 291.18 87.59 Z"/>
      <glyph unicode="й" glyph-name="uni0439" horiz-adv-x="917" d="M 258.83 -15.69 C 189.21 7.62 220.64 175.30 220.60 239.44 C 220.54 335.06 224.40 437.78 217.73 532.55 L 6.31 531.02 C -2.06 429.58 -6.30 20.37 21.29 -58.97 C 84.73 -241.39 374.03 -237.33 452.65 -100.44 C 491.87 -32.14 599.52 329.82 630.66 349.67 C 725.08 409.86 697.10 161.89 697.10 114.87 C 697.07 12.61 697.81 -89.43 698.57 -191.66 L 911.58 -195.43 C 917.56 -43.89 912.54 114.81 911.95 266.17 C 911.33 423.36 869.88 527.58 691.27 539.23 C 493.94 552.10 447.59 463.99 399.45 328.89 L 309.98 61.07 C 296.63 21.98 291.64 -2.00 258.83 -15.69 Z M 209.68 627.93 L 694.46 626.47 L 692.36 800.00 L 211.52 796.57 L 209.68 627.93 Z"/>
      <glyph unicode="к" glyph-name="uni043A" horiz-adv-x="1162" d="M 0.00 -191.85 L 292.73 -193.40 L 293.27 184.65 C 888.09 182.72 794.66 244.94 865.96 -190.91 L 1151.27 -193.35 C 1146.41 -110.79 1133.01 23.45 1115.80 101.79 C 1086.48 235.30 1048.34 234.75 976.81 303.58 C 1061.77 364.04 1088.44 375.64 1111.25 496.73 C 1126.99 580.33 1146.24 713.39 1142.48 798.91 L 861.23 800.00 C 841.31 705.30 847.43 491.00 773.96 442.86 C 704.95 397.63 396.62 422.85 291.80 420.48 L 291.63 795.46 L 0.68 799.76 L 0.00 -191.85 Z"/>
      <glyph unicode="л" glyph-name="uni043B" horiz-adv-x="1160" d="M 0.00 -189.91 L 274.06 -188.94 L 422.01 435.69 C 445.70 522.02 463.47 551.96 574.58 552.63 C 733.96 553.61 730.61 458.00 778.18 228.91 C 806.60 92.00 848.09 -47.87 876.72 -188.04 L 1154.94 -189.81 C 1123.71 6.50 1056.35 228.27 1009.88 421.90 C 952.51 660.90 905.39 795.02 588.16 799.84 C 433.46 802.19 352.17 778.85 263.39 706.82 C 167.73 629.19 171.28 572.16 142.46 442.68 C 100.73 255.08 19.56 -3.94 0.00 -189.91 Z"/>
      <glyph unicode="м" glyph-name="uni043C" horiz-adv-x="1457" d="M 0.94 -189.20 L 282.81 -195.49 C 283.73 -78.67 262.56 486.11 307.60 546.47 L 366.08 550.04 C 490.13 373.44 394.42 -76.12 752.90 -57.69 C 977.41 -46.14 993.82 175.15 1053.66 394.99 C 1075.98 476.94 1062.71 553.77 1163.72 547.22 L 1173.82 -194.75 L 1453.11 -193.92 C 1457.09 -11.41 1454.25 173.20 1453.70 356.58 C 1453.15 540.73 1459.64 717.08 1284.88 775.16 C 1096.23 837.86 916.79 773.27 852.99 653.67 C 824.44 600.18 785.52 399.61 764.68 312.04 L 743.09 223.81 C 725.91 184.36 741.23 214.73 728.57 199.15 C 679.46 283.64 658.71 532.39 608.01 645.07 C 553.34 766.58 350.61 842.82 173.73 773.96 C -7.99 703.20 -0.24 564.02 0.14 368.55 C 0.50 185.13 6.85 -6.91 0.94 -189.20 Z"/>
      <glyph unicode="н" glyph-name="uni043D" horiz-adv-x="1200" d="M 0.93 46.45 L 1.16 -195.86 L 295.93 -195.84 L 295.89 172.70 L 900.19 172.29 L 897.09 -192.85 L 1199.14 -195.79 L 1198.36 799.03 L 892.52 800.00 L 894.65 416.31 L 296.01 416.98 L 293.90 790.64 L 0.00 797.73 L 0.93 46.45 Z"/>
      <glyph unicode="о" glyph-name="uni043E" horiz-adv-x="1256" d="M 935.53 106.49 C 885.47 33.16 804.77 49.67 701.12 49.82 C 616.90 49.95 473.90 42.09 396.48 51.52 C 287.71 64.76 292.62 138.71 292.66 224.67 C 292.83 519.52 264.40 546.28 540.09 546.68 C 619.53 546.79 777.95 554.55 848.39 544.36 C 945.92 530.25 948.66 456.42 948.81 366.80 C 948.91 309.26 962.28 145.69 935.53 106.49 Z M 8.97 94.66 C 27.37 -45.17 135.86 -154.64 286.73 -177.62 C 422.66 -198.34 712.90 -189.38 862.27 -186.40 C 1281.80 -177.97 1259.24 172.59 1233.78 506.55 C 1222.32 657.00 1113.54 754.81 960.85 784.14 C 855.26 804.42 497.30 801.83 378.61 795.09 C 191.86 784.48 79.85 711.68 27.87 580.99 C -6.18 495.39 -4.49 197.08 8.97 94.66 Z"/>
      <glyph unicode="п" glyph-name="uni043F" horiz-adv-x="1247" d="M 293.80 -188.40 C 315.07 -86.76 298.35 199.14 296.30 318.45 C 291.89 576.12 348.06 548.11 614.82 547.18 C 994.96 545.87 936.54 631.64 936.60 -188.60 L 1231.09 -188.70 C 1232.43 -37.24 1253.17 460.94 1218.01 575.73 C 1144.15 816.74 901.64 798.44 601.24 799.91 C 302.64 801.38 74.03 788.19 15.22 547.47 C -2.01 476.94 -6.70 -125.46 12.14 -189.70 L 293.80 -188.40 Z"/>
      <glyph unicode="р" glyph-name="uni0440" horiz-adv-x="944" d="M 704.28 277.01 C 678.49 226.75 607.71 235.85 532.31 235.79 C 200.23 235.56 220.66 211.45 221.60 366.81 C 221.91 418.97 212.30 523.10 233.96 566.94 C 262.02 623.75 334.58 610.81 410.04 610.98 C 652.79 611.48 717.02 642.13 716.79 474.68 C 716.72 429.39 720.22 308.09 704.28 277.01 Z M 226.13 54.01 C 533.03 63.92 862.24 -10.76 927.57 234.15 C 941.19 285.19 939.95 565.94 927.07 616.73 C 900.64 720.85 815.43 785.56 678.51 793.87 C 582.08 799.71 321.74 804.81 232.40 792.12 C 109.02 774.62 28.18 707.10 7.48 596.69 C -5.98 524.82 2.74 -69.60 3.22 -193.30 L 222.86 -190.43 L 226.13 54.01 Z"/>
      <glyph unicode="с" glyph-name="uni0441" horiz-adv-x="1171" d="M 1165.47 51.34 C 976.52 56.61 778.24 51.73 588.39 50.51 C 305.33 48.71 289.39 36.80 287.44 294.09 C 284.87 633.24 304.59 530.46 1162.61 546.55 L 1163.41 788.78 C 226.88 804.19 3.89 877.30 0.04 294.09 C -4.18 -346.48 366.35 -165.20 1164.18 -186.27 L 1165.47 51.34 Z"/>
      <glyph unicode="т" glyph-name="uni0442" horiz-adv-x="1136" d="M 5.79 551.44 L 409.77 551.56 L 411.89 -184.63 L 707.49 -188.25 L 708.66 549.97 L 1128.80 550.80 L 1126.83 799.53 L 0.00 800.00 L 5.79 551.44 Z"/>
      <glyph unicode="у" glyph-name="uni0443" horiz-adv-x="892" d="M 7.26 800.00 C 3.82 661.04 -20.99 277.41 46.62 178.87 C 95.01 108.35 183.54 79.06 305.72 77.80 C 424.42 76.56 561.42 72.79 678.47 78.92 C 669.08 -92.06 533.89 9.22 189.79 -20.68 L 190.29 -186.37 C 259.37 -198.50 561.63 -194.01 643.41 -188.91 C 780.31 -180.34 871.07 -114.28 885.04 0.52 L 886.72 799.09 L 674.57 799.22 C 668.39 176.17 734.40 251.02 444.76 251.23 C 221.18 251.39 219.11 227.65 221.75 433.67 C 223.26 552.57 226.59 678.77 222.04 799.66 L 7.26 800.00 Z"/>
      <glyph unicode="ф" glyph-name="uni0444" horiz-adv-x="984" d="M 586.96 501.92 C 779.58 510.95 794.43 519.51 794.87 358.18 C 795.39 161.57 814.62 170.63 588.97 174.47 L 586.55 381.64 L 586.96 501.92 Z M 275.88 174.87 C 208.38 173.96 189.85 187.30 187.87 248.19 C 186.28 296.38 188.42 348.95 188.94 397.53 C 190.18 511.03 199.98 506.47 399.09 501.57 L 400.06 176.31 L 275.88 174.87 Z M 592.03 16.56 C 902.94 30.52 980.95 2.02 982.04 342.54 C 983.03 652.19 926.14 661.67 586.07 663.47 L 585.91 800.00 L 399.10 799.82 L 396.43 666.48 C 56.97 666.28 -0.59 638.24 0.49 334.71 C 0.94 209.41 -12.52 133.21 75.62 64.24 C 156.85 0.69 282.16 18.61 400.59 14.71 L 404.20 -194.63 L 586.16 -195.70 L 592.03 16.56 Z"/>
      <glyph unicode="х" glyph-name="uni0445" horiz-adv-x="1250" d="M 0.00 796.34 C 18.65 768.91 78.96 572.12 105.82 514.71 C 131.90 458.93 143.00 435.79 183.87 389.40 C 238.46 327.43 263.38 327.33 285.26 288.88 C 157.38 234.17 41.48 -18.11 1.57 -197.24 L 295.44 -190.88 C 377.41 -43.98 400.89 178.03 625.24 174.10 C 870.12 169.82 873.55 -89.36 955.41 -194.77 L 1243.27 -192.98 C 1193.77 -18.52 1084.45 229.39 950.96 289.05 L 1008.62 344.22 C 1123.12 444.18 1204.70 668.18 1240.09 800.00 L 941.40 799.90 C 886.10 650.06 825.41 416.14 624.92 414.57 C 417.31 412.94 349.72 626.84 301.72 798.04 L 0.00 796.34 Z"/>
      <glyph unicode="ц" glyph-name="uni0446" horiz-adv-x="1096" d="M 2.48 798.15 C -3.35 669.78 2.83 528.69 3.55 398.91 C 4.25 272.84 -14.47 157.34 61.21 62.67 C 202.52 -114.08 553.55 -29.84 835.34 -51.39 L 836.17 -190.46 L 1086.34 -189.12 L 1084.84 154.34 L 973.52 158.24 L 970.29 798.47 L 721.41 800.00 L 722.28 160.39 C 625.86 153.06 517.29 157.66 419.26 156.95 C 301.60 156.08 254.29 165.51 251.63 274.50 C 247.41 447.70 255.59 623.26 250.69 798.37 L 2.48 798.15 Z"/>
      <glyph unicode="ч" glyph-name="uni0447" horiz-adv-x="1175" d="M 287.13 522.19 C 258.32 587.45 273.93 716.37 280.14 795.29 L 0.00 798.26 L 1.68 469.43 C -11.46 73.84 577.54 161.26 878.74 159.38 L 881.70 -192.74 L 1169.74 -193.03 L 1163.90 799.16 L 879.51 800.00 L 877.85 404.70 C 578.01 410.15 274.06 351.78 287.13 522.19 Z"/>
      <glyph unicode="ш" glyph-name="uni0448" horiz-adv-x="1457" d="M 2.31 131.52 C 4.55 -280.38 422.95 -183.53 909.35 -184.34 C 1139.07 -184.73 1424.85 -200.18 1437.86 107.12 C 1446.77 317.38 1449.91 590.46 1436.65 799.04 L 1154.08 799.78 L 1150.92 646.39 C 1150.35 571.54 1172.72 124.93 1129.43 81.50 C 1086.23 38.16 931.15 48.89 860.26 61.00 L 853.20 798.63 L 571.48 800.00 L 567.73 55.13 C 278.14 50.76 288.14 39.38 289.25 227.19 L 291.35 798.63 L 0.00 797.08 L 2.31 131.52 Z"/>
      <glyph unicode="щ" glyph-name="uni0449" horiz-adv-x="1387" d="M 1267.13 154.94 C 1240.23 197.13 1249.16 710.12 1256.63 795.70 L 1018.78 795.80 C 1017.95 686.68 1016.17 577.95 1016.43 468.71 C 1016.50 434.47 1031.58 176.05 1001.78 153.84 L 756.03 155.69 L 751.50 799.16 L 509.90 798.02 L 509.93 150.92 C 427.46 150.92 320.20 135.17 268.54 176.71 C 232.92 238.47 257.27 687.30 252.10 800.00 L 4.62 796.28 C -4.92 648.52 3.39 483.12 2.66 333.14 C 1.83 165.64 -5.85 56.46 121.92 -16.00 C 238.66 -82.18 463.19 -57.26 612.27 -56.15 C 780.25 -54.91 961.32 -51.92 1130.25 -56.99 L 1132.74 -196.41 L 1379.25 -194.34 L 1374.22 150.05 L 1267.13 154.94 Z"/>
      <glyph unicode="ъ" glyph-name="uni044A" horiz-adv-x="1300" d="M 453.74 243.82 C 582.79 248.17 738.06 248.24 867.43 244.81 C 939.61 242.88 984.46 236.46 999.91 178.64 C 1015.05 121.95 994.47 81.33 953.92 56.16 C 881.79 28.10 555.26 38.10 454.38 46.69 L 453.74 243.82 Z M 3.33 556.25 L 171.50 551.68 L 174.79 -197.55 C 405.27 -197.69 636.13 -198.11 866.59 -197.76 C 1425.06 -196.92 1375.86 347.43 1088.40 451.31 C 955.34 499.40 622.41 477.68 452.46 482.19 L 449.40 799.88 L 0.00 800.00 L 3.33 556.25 Z"/>
      <glyph unicode="ы" glyph-name="uni044B" horiz-adv-x="1506" d="M 290.95 52.60 L 291.91 248.20 C 396.97 250.87 500.92 249.10 605.45 251.44 C 713.86 253.87 804.38 253.80 807.21 152.82 C 810.51 35.02 709.37 50.96 605.39 51.69 C 500.65 52.41 395.81 51.79 290.95 52.60 Z M 7.86 -181.02 C 164.54 -202.07 497.67 -186.47 673.30 -186.25 C 1231.32 -185.54 1175.11 340.08 901.31 450.13 C 768.29 503.61 460.72 479.41 293.48 487.00 L 288.96 796.96 L 0.00 794.75 L 7.86 -181.02 Z M 1211.89 -185.22 L 1501.33 -181.36 L 1498.21 798.23 L 1209.06 800.00 L 1211.89 -185.22 Z"/>
      <glyph unicode="ь" glyph-name="uni044C" horiz-adv-x="1162" d="M 304.22 242.50 C 441.36 243.31 582.11 246.88 718.97 244.01 C 792.49 242.45 837.51 237.14 853.91 178.93 C 909.85 -19.58 556.26 47.51 302.20 43.48 L 304.22 242.50 Z M 0.00 -196.70 C 229.32 -200.18 461.12 -198.64 690.66 -198.51 C 928.12 -198.33 1071.65 -154.26 1132.01 22.20 C 1200.26 221.83 1108.23 392.46 953.85 451.01 C 845.74 492.00 444.60 486.15 300.57 482.10 L 299.05 798.29 L 0.08 800.00 L 0.00 -196.70 Z"/>
      <glyph unicode="э" glyph-name="uni044D" horiz-adv-x="1207" d="M 900.41 427.28 C 876.19 403.56 895.63 411.92 837.34 409.44 L 281.11 408.44 L 282.21 192.43 C 390.04 197.45 500.13 193.90 608.34 196.13 C 655.51 197.11 874.72 211.19 903.40 176.89 C 922.34 12.12 771.69 49.13 527.87 47.88 C 355.81 47.00 174.00 42.97 0.00 48.55 L 0.79 -189.00 C 885.00 -157.26 1195.68 -364.53 1195.51 310.56 C 1195.45 497.41 1218.51 761.23 872.11 790.95 C 616.97 812.84 275.09 787.69 4.21 791.17 L 10.81 553.05 C 181.45 555.38 356.70 552.22 527.87 551.74 C 673.84 551.32 933.92 590.18 900.41 427.28 Z M 903.42 176.89 C 874.74 211.19 655.53 197.11 608.36 196.13 C 500.15 193.89 390.06 197.44 282.23 192.43 L 281.13 408.44 L 837.36 409.44 C 895.65 411.92 876.21 403.56 900.43 427.28 L 272.61 418.17 C 264.72 347.80 255.54 251.51 279.89 184.60 L 903.42 176.89 Z"/>
      <glyph unicode="ю" glyph-name="uni044E" horiz-adv-x="1531" d="M 748.88 120.17 C 743.24 137.20 709.02 489.71 801.51 537.49 C 855.59 565.43 974.77 554.94 1044.34 554.28 C 1281.47 552.02 1238.80 482.66 1241.35 251.86 C 1242.22 172.75 1250.44 90.70 1180.53 60.01 C 1170.01 55.39 788.85 -0.43 748.88 120.17 Z M 299.52 189.60 L 453.26 185.79 C 474.64 12.15 488.77 -58.42 617.65 -136.47 C 734.57 -207.28 909.81 -193.57 1071.29 -192.91 C 1493.12 -191.19 1532.96 -43.02 1529.65 311.75 C 1526.35 668.51 1490.40 801.34 1057.75 799.98 C 801.09 799.17 454.67 821.61 454.87 417.83 L 294.80 415.66 L 292.88 795.02 L 0.00 794.62 L 3.79 -187.32 L 293.50 -187.03 L 299.52 189.60 Z"/>
      <glyph unicode="я" glyph-name="uni044F" horiz-adv-x="1235" d="M 305.06 419.44 C 252.43 596.84 457.52 554.58 620.63 554.41 C 815.48 554.22 934.09 598.19 928.39 405.15 C 803.28 390.00 393.41 384.35 305.06 419.44 Z M 1217.70 -198.95 C 1221.08 -16.22 1244.36 404.10 1212.40 563.46 C 1157.46 837.52 819.96 799.04 607.05 797.12 C 404.37 795.28 73.97 843.24 10.23 555.47 C -15.23 440.61 6.25 330.23 81.25 260.21 C 165.53 181.54 266.43 178.12 418.31 171.88 C 314.60 -0.49 279.55 27.89 42.83 32.58 L 44.71 -197.77 L 448.22 -199.30 C 460.27 -168.84 564.48 -54.52 598.75 -11.11 C 643.19 45.18 710.49 122.40 743.37 181.86 L 914.32 170.87 C 916.15 168.52 917.70 164.88 918.35 163.13 L 930.65 -196.30 L 1217.70 -198.95 Z"/>
      <glyph unicode="ё" glyph-name="uni0451" horiz-adv-x="862" d="M 207.65 235.12 C 207.68 356.70 298.10 330.66 429.65 330.66 C 475.41 330.68 594.87 335.05 622.97 323.38 C 665.88 305.58 656.11 267.21 634.09 241.54 C 611.03 227.36 241.86 235.04 207.65 235.12 Z M 834.70 -188.09 L 832.13 -26.62 C 729.95 -9.08 430.31 -28.73 296.21 -23.45 C 223.78 -20.61 208.95 6.20 208.73 71.78 C 346.34 74.22 520.10 62.84 652.21 74.42 C 929.47 98.70 927.56 481.32 628.53 495.37 C 535.89 499.73 268.91 506.30 188.29 491.58 C 130.41 481.00 86.52 448.01 55.35 416.80 C -24.85 336.50 -7.67 -24.61 42.30 -95.78 C 107.26 -188.28 224.60 -191.59 382.23 -190.34 C 525.53 -189.21 695.43 -196.92 834.70 -188.09 Z M 246.84 793.40 C 119.43 751.30 182.89 558.51 327.51 619.32 C 445.73 669.04 372.44 834.90 246.84 793.40 Z M 532.77 791.97 C 409.70 746.83 474.39 572.18 614.22 617.67 C 633.75 624.03 661.01 647.82 668.89 662.01 C 682.07 685.74 682.42 715.21 671.35 742.78 C 655.35 782.59 593.92 814.39 532.77 791.97 Z"/>
    </font>
</defs>
</svg>
