<svg width="110" height="98" viewBox="0 0 110 98" fill="none" xmlns="http://www.w3.org/2000/svg">
<path fill-rule="evenodd" clip-rule="evenodd" d="M1.54926 20.958C17.7771 21.6956 35.7228 21.0727 52.0761 21.0591C75.081 21.0386 84.0965 16.6196 83.9028 38.8129C65.8487 39.9152 26.7104 35.5386 14.2933 43.001C-4.45795 54.2705 0.655463 74.1239 0.587304 97.4455L24.8671 97.5698C27.1256 51.0973 14.1585 60.1962 84.6495 59.7714L84.335 97.257L108.777 97.4604C108.977 81.5275 108.794 65.82 108.881 50.1206C108.966 34.8706 111.168 18.7916 100.516 9.34436C88.3687 -1.4306 76.8454 0.0706446 56.4754 0.0720106C38.3206 0.0720106 20.1595 0.218103 2.00469 0.171659L1.54926 20.958Z" fill="#FF2F63"/>
</svg>
