<svg width="100" height="81" viewBox="0 0 100 81" fill="none" xmlns="http://www.w3.org/2000/svg">
<path fill-rule="evenodd" clip-rule="evenodd" d="M75.236 49.7154C76.0896 62.9914 69.4829 60.4453 55.4005 60.3005C49.8487 60.2431 28.162 61.3618 25.1089 58.9017C21.6111 56.0809 23.4932 51.1291 27.1737 50.0076C31.3143 48.7454 70.0932 49.4531 75.236 49.7154ZM3.28743 20.0582C17.0569 19.6348 31.525 20.0951 45.5021 20.0337C59.1631 19.9736 76.1469 16.1173 74.8829 30.1324C44.1869 32.0189 -0.335783 21.1948 0.00190966 55.4976C0.144422 69.9184 8.74008 78.7713 24.5667 79.8491C35.9383 80.6223 65.3454 80.8983 76.2708 79.7768C92.4134 78.1226 98.6483 68.6548 98.7599 53.5579C98.8559 40.6943 100.958 21.2193 94.4706 11.3623C87.7988 1.22389 72.6894 0.219882 55.4005 0.161145C38.093 0.102407 20.3177 0.449412 3.08297 0L3.28743 20.0582Z" fill="#FF2F63"/>
</svg>
