<svg width="103" height="115" viewBox="0 0 103 115" fill="none" xmlns="http://www.w3.org/2000/svg">
<path fill-rule="evenodd" clip-rule="evenodd" d="M56.5364 94.2572C28.731 94.2244 24.578 97.1435 24.5578 77.6685C24.5361 54.8427 20.6976 53.7281 46.6364 53.7964C74.6881 53.8702 78.0123 50.8145 78.1765 69.8961C78.3609 91.42 82.5356 94.2886 56.5364 94.2572ZM25.701 33.0497C22.2978 16.4707 39.3605 20.0796 54.3352 20.2326C67.7809 20.3692 83.6261 20.82 96.872 20.1111L97.1694 0.18399C77.1186 -0.0263731 56.7672 -0.0838035 36.7132 0.157977C-9.48095 0.713937 0.996794 30.3315 1.0696 77.6632C1.08199 85.8796 0.490259 95.4046 4.94532 101.822C8.19212 106.499 15.3936 111.492 23.2241 113.019C30.7633 114.49 75.884 114.537 82.9709 112.628C101.896 107.532 102.14 93.6301 102.136 74.7535C102.131 55.34 102.727 41.3208 84.3294 35.6806C68.6654 30.8791 36.8294 36.1697 25.701 33.0497Z" fill="#FF2F63"/>
</svg>
