<svg width="110" height="98" viewBox="0 0 110 98" fill="none" xmlns="http://www.w3.org/2000/svg">
<path fill-rule="evenodd" clip-rule="evenodd" d="M24.3271 76.6325L24.4371 59.1969C36.2749 59.4851 48.2118 59.0111 59.8297 59.0493C70.3168 59.0835 84.9769 56.4526 85.2991 67.6538C85.6368 79.3917 71.209 76.8374 59.8297 76.7636C47.995 76.6858 36.1665 76.7718 24.3271 76.6325ZM0.544563 97.5471C22.129 97.4556 43.7428 97.442 65.3304 97.4816C88.8759 97.5253 102.709 96.7016 108.272 78.37C113.836 60.0233 105.644 43.947 88.7783 40.0867C77.6809 37.546 38.7425 38.6087 24.4216 38.6811C23.836 16.5506 32.2443 20.945 55.4304 21.0679C72.4607 21.1581 89.5095 20.9121 106.533 21.2632L106.377 0.302148C88.4747 0.537099 70.1541 0.131319 52.1309 0.151809C31.6262 0.175031 19.6211 -2.01605 8.19064 9.51567C-2.33204 20.1335 0.257977 34.6363 0.338527 50.1745C0.417529 65.3466 -0.493299 82.6728 0.544563 97.5471Z" fill="#FF2F63"/>
</svg>
