<svg width="102" height="81" viewBox="0 0 102 81" fill="none" xmlns="http://www.w3.org/2000/svg">
<path fill-rule="evenodd" clip-rule="evenodd" d="M60.56 60.8728L24.2813 60.8481L24.0908 50.0786C35.7675 49.9366 69.2517 49.0009 76.0706 50.972C80.1942 62.2988 71.6202 60.9083 60.56 60.8728ZM75.987 29.907C69.955 31.8317 34.9729 30.9575 24.145 30.9944L24.4099 20.4038L61.6599 20.4434C71.5475 20.4366 79.4971 19.8315 75.987 29.907ZM0.244762 80.3437L77.0574 80.2561C102.931 78.158 108.003 53.7955 93.7437 40.5044C101.164 33.3507 103.382 25.0004 99.2753 15.127C96.0239 7.31757 87.8155 2.05849 76.8839 1.05175C54.7062 -0.991775 23.2744 0.61053 0 0.397435L0.244762 80.3437Z" fill="#FF2F63"/>
</svg>
