<svg width="110" height="99" viewBox="0 0 110 99" fill="none" xmlns="http://www.w3.org/2000/svg">
<path fill-rule="evenodd" clip-rule="evenodd" d="M24.8297 59.4923C36.5653 59.4336 48.2916 59.2901 60.0287 59.3256C70.0789 59.3556 84.5037 57.4952 84.9312 67.9874C85.3944 79.3565 70.0696 76.9907 60.0287 76.9565C48.211 76.9155 36.2493 76.8541 24.3928 76.9961L24.8297 59.4923ZM24.6469 21.3838C36.4383 21.4453 48.2358 21.3333 60.0287 21.2868C70.3144 21.2472 84.4185 19.2761 84.8569 30.2095C85.2891 40.9968 70.7249 39.1417 60.0287 39.124C48.1862 39.1048 36.2834 39.1744 24.4579 38.9846L24.6469 21.3838ZM0.246312 97.9832C16.0032 97.7196 77.1364 98.8206 86.4694 97.2853C98.2081 95.3551 105.944 88.5429 108.484 78.5329C110.274 71.4898 110.06 60.6971 105.441 54.0993L101.136 49.067C101.034 48.9537 100.793 48.7077 100.64 48.5165C110.187 41.0554 110.995 29.8666 107.891 18.9291C101.176 -4.7244 68.3161 0.497714 43.5282 0.474493C29.0524 0.460833 14.4588 0.660364 0 0.50464L0.246312 97.9832Z" fill="#FF2F63"/>
</svg>
