<svg width="130" height="97" viewBox="0 0 130 97" fill="none" xmlns="http://www.w3.org/2000/svg">
<path fill-rule="evenodd" clip-rule="evenodd" d="M86.3146 24.607L86.4044 72.8307L38.6984 72.772C41.0049 66.0253 43.3316 63.7646 43.6197 55.3255C44.7381 22.6783 35.8404 23.7587 86.3146 24.607ZM10.8124 72.7993L3.26394 72.817C1.43606 72.8102 -0.0153676 73.6312 0.000122844 75.269L0.00163559 96.4582L129.092 96.5635L129.084 76.2047C129.057 74.0915 127.395 72.8579 124.953 72.7637L113.387 72.8211L113.282 9.56476C113.268 0.680336 111.581 -0.00136395 103.191 2.04133e-06L58.0816 0.0082727C46.1354 0.0096387 35.8001 2.75654 27.8845 9.18217C7.20006 25.9689 22.7246 47.1541 10.8124 72.7993Z" fill="#FF2F63"/>
</svg>
