<svg width="101" height="81" viewBox="0 0 101 81" fill="none" xmlns="http://www.w3.org/2000/svg">
<path fill-rule="evenodd" clip-rule="evenodd" d="M24.0837 30.4859C23.6019 17.0692 36.1524 20.021 49.1055 20.0046C63.7533 20.0183 80.9261 17.7535 75.4904 29.8275C69.2633 32.1306 31.5764 30.8056 24.0837 30.4859ZM98.4582 80.1494L98.3791 60.908C81.493 60.5624 47.3147 61.4175 33.6723 60.6225C25.5708 60.1499 24.203 57.6651 24.2309 50.4117C55.1994 47.0773 100.738 60.6867 100.081 24.7939C99.8182 10.3949 90.685 2.1102 75.4951 0.740105C66.4378 -0.0781249 31.2032 -0.455203 23.0335 0.879372C7.87295 3.35592 1.243 12.0013 0.663657 26.7172C0.160217 39.5316 -1.84885 59.9327 5.00878 69.4796C13.4852 81.2818 26.0944 80.3065 45.806 80.2928C63.0965 80.2819 81.2777 80.7095 98.4582 80.1494Z" fill="#FF2F63"/>
</svg>
