<svg width="109" height="98" viewBox="0 0 109 98" fill="none" xmlns="http://www.w3.org/2000/svg">
<path fill-rule="evenodd" clip-rule="evenodd" d="M107.878 97.7943L108.082 76.7431C100.703 76.9275 38.2451 77.5421 32.7924 76.2389C23.808 74.0902 24.5716 68.6317 24.5701 59.6093L85.2587 59.3812L85.7915 39.0471L25.3384 39.2383C18.6589 17.9875 38.8538 21.4189 55.8283 21.382C73.252 21.3438 90.6819 21.2113 108.102 21.52L108.064 0.226883C93.1356 0.337529 36.823 -0.592713 27.3072 0.670831C-3.97888 4.82482 0.102867 32.3155 0.250027 49.2128C0.389441 65.0515 -4.09815 92.6049 26.6551 97.11C38.7903 98.8871 88.4729 96.8845 107.878 97.7943Z" fill="#FF2F63"/>
</svg>
