<svg width="128" height="80" viewBox="0 0 128 80" fill="none" xmlns="http://www.w3.org/2000/svg">
<path fill-rule="evenodd" clip-rule="evenodd" d="M11.1067 39.8351C-0.504959 48.4696 0.844279 63.3794 0.12707 79.8847L23.8243 79.7044C26.5212 50.7467 18.5482 49.7604 52.4708 49.4148L52.4337 79.5978L75.4091 79.6962L75.4557 49.7386C109.501 48.2674 101.257 52.558 104.288 79.3752L127.624 79.6702C126.343 63.113 128.655 47.5106 115.133 39.7681C120.491 35.5704 123.188 34.9818 125.027 23.92C126.309 16.1953 126.703 7.86266 127.375 0L104.088 0.0943122C102.581 31.5231 101.103 32.1241 75.3736 30.2077L75.3053 0.0943122L52.3114 0.0847076L52.4601 30.4945C21.6635 30.6516 26.5134 31.9493 23.7871 0.146204L0 0.154341C0.915487 15.9247 1.15252 31.3031 11.1067 39.8351Z" fill="#FF2F63"/>
</svg>
