<svg width="127" height="98" viewBox="0 0 127 98" fill="none" xmlns="http://www.w3.org/2000/svg">
<path fill-rule="evenodd" clip-rule="evenodd" d="M16.3827 48.449C9.08203 55.8172 7.24013 57.914 5.37507 69.8924C3.99952 78.725 2.05091 88.1489 0.898417 96.9336L25.3222 97.0593C33.052 66.2165 19.6667 58.7745 51.2363 59.5709L51.4438 96.9555L74.5261 97.1003L74.8374 59.4288C87.6481 59.8865 95.4879 57.578 97.2368 70.2449C98.3939 78.617 99.0832 89.4671 101.884 96.9965L124.836 97.1467C125.163 90.5312 122.519 76.5175 121.482 69.2559C119.726 56.9496 116.972 55.0071 109.646 48.1649C122.344 39.5796 122.234 18.8438 126.382 0.161145L101.286 0.312818C100.544 8.34486 98.2172 18.5311 96.7503 27.2434C94.7907 38.8721 88.8424 40.3911 74.8762 38.5142L74.54 0L50.7917 0.237715L51.1139 38.8406C36.0664 38.6576 31.3061 40.7804 29.2366 27.4538C27.9044 18.8767 25.5964 8.21514 25.1239 0.0546931L0 0.273199C2.037 9.12893 3.41561 18.109 5.1521 27.2202C7.23711 38.1632 9.93246 43.2623 16.3827 48.449Z" fill="#FF2F63"/>
</svg>
