<svg width="94" height="81" viewBox="0 0 94 81" fill="none" xmlns="http://www.w3.org/2000/svg">
<path fill-rule="evenodd" clip-rule="evenodd" d="M0.546705 20.3361C20.215 21.0655 41.0343 19.8157 60.9488 20.3772C72.9245 20.7146 73.132 31.3761 60.9782 31.4048C50.6569 31.4293 40.1311 31.361 29.8098 31.167L29.9679 49.9262C59.4633 49.5806 74.6129 46.6452 68.0124 60.1672C55.8477 62.3705 15.0815 61.167 0 60.8146L0.0541562 80.5245C20.8238 79.429 54.1423 82.6159 72.6116 79.7828C93.9637 76.5071 100.772 52.8304 84.0885 40.7782C97.8564 33.2994 97.4924 5.59157 73.3938 1.44441C59.9032 -0.876408 16.2184 0.191767 0.48317 0.626153L0.546705 20.3361Z" fill="#FF2F63"/>
</svg>
