<svg width="109" height="99" viewBox="0 0 109 99" fill="none" xmlns="http://www.w3.org/2000/svg">
<path fill-rule="evenodd" clip-rule="evenodd" d="M75.7097 38.736C71.2175 41.4912 34.3874 40.1116 26.196 39.583L26.3447 59.8447C32.1257 59.4322 75.5455 58.6686 76.334 60.8119C84.9978 62.4934 84.953 72.4419 79.127 75.749C74.0786 78.6162 8.76924 77.3171 0.429165 77.2133L0.158082 97.9901C17.3587 98.4245 70.9898 99.7631 84.8848 97.3139C95.9822 95.3578 104.057 88.0812 106.59 78.5643C111.494 60.1275 104.051 55.4203 98.8386 48.324C107.51 44.7464 109.041 31.178 106.774 20.4549C104.562 9.99551 97.4522 3.60949 85.5431 1.33648C72.6086 -1.1305 16.4803 0.495039 0 0.903471L0.317524 21.6447C18.7992 23.5257 71.837 19.5588 78.9317 23.6663C84.533 26.9092 84.8305 37.7675 75.7097 38.736Z" fill="#FF2F63"/>
<path fill-rule="evenodd" clip-rule="evenodd" d="M76.3326 60.8117C75.5441 58.6685 32.1243 59.432 26.3433 59.8446L26.1945 39.5828C34.3859 40.1114 71.216 41.491 75.7083 38.7358L25.3828 38.9407L25.3999 60.1287L76.3326 60.8117Z" fill="#FF2F63"/>
</svg>
