<svg width="97" height="81" viewBox="0 0 97 81" fill="none" xmlns="http://www.w3.org/2000/svg">
<path fill-rule="evenodd" clip-rule="evenodd" d="M23.5858 57.705C20.2863 54.2599 21.9113 9.4377 22.0027 1.21715L0 1.13245L0.535964 60.6419C0.746635 80.666 34.5483 87.8102 47.5742 71.3049C55.812 60.8673 60.7103 29.5082 68.0156 19.9094C76.9427 20.6784 73.4713 29.9003 73.5224 47.1268C73.555 57.7146 72.9353 69.5741 73.7501 79.9871L96.4622 79.8163C97.4196 63.0843 96.7659 44.3333 96.6884 27.7092C96.6094 10.8364 90.0398 -0.585988 69.7643 0.0232448C49.5307 0.632478 46.7982 12.3786 41.5237 27.2352C39.0592 34.1785 36.6659 40.4252 34.4864 47.1842C33.0706 51.5799 28.5458 68.0551 23.5858 57.705Z" fill="#FF2F63"/>
</svg>
