<svg width="110" height="99" viewBox="0 0 110 99" fill="none" xmlns="http://www.w3.org/2000/svg">
<path fill-rule="evenodd" clip-rule="evenodd" d="M31.6053 76.3308C23.2141 75.0235 24.8608 69.1047 24.9289 61.8349L25.3719 0.459462L0 0.762675C2.14543 16.0973 0.362483 44.0086 0.470917 60.8622C0.568506 76.1969 1.37566 96.6226 28.2594 98.0965C52.9202 99.4475 56.4334 83.8274 62.089 66.4192L73.7997 30.1453C75.7252 24.5939 75.1381 21.4316 82.5441 21.922C86.9961 29.0839 83.8128 83.4231 84.6942 97.4846L108.723 97.6882C109.011 77.6873 108.873 57.6085 109.002 37.5858C109.103 22.0176 109.676 0.837852 82.1926 0.0264524C57.9809 -0.686596 54.2601 13.1072 48.7424 30.3624C45.6427 40.0514 36.8674 71.5484 31.6053 76.3308Z" fill="#FF2F63"/>
</svg>
