<svg width="100" height="109" viewBox="0 0 100 109" fill="none" xmlns="http://www.w3.org/2000/svg">
<path fill-rule="evenodd" clip-rule="evenodd" d="M28.2125 88.91C20.6237 86.3693 24.0501 68.0923 24.0455 61.1011C24.0393 50.6786 24.4592 39.4815 23.7327 29.1518L0.687554 29.3186C-0.224835 40.3763 -0.686597 84.9801 2.3201 93.6282C9.23505 113.512 40.7691 113.069 49.3384 98.1482C53.6138 90.7036 65.3478 51.2496 68.7417 49.0859C79.0336 42.525 75.9835 69.5538 75.9835 74.679C75.9804 85.8255 76.061 96.9475 76.1446 108.091L99.3619 108.502C100.014 91.9835 99.4672 74.6859 99.4021 58.1875C99.3355 41.0538 94.8169 29.6941 75.3485 28.4237C53.84 27.0209 48.787 36.6253 43.5404 51.3507L33.7876 80.5433C32.333 84.8039 31.7892 87.4184 28.2125 88.91Z" fill="#FF2F63"/>
<path fill-rule="evenodd" clip-rule="evenodd" d="M22.8555 18.7551L75.6966 18.9149L75.4674 0L23.0553 0.374181L22.8555 18.7551Z" fill="#FF2F63"/>
</svg>
