<svg width="110" height="126" viewBox="0 0 110 126" fill="none" xmlns="http://www.w3.org/2000/svg">
<path fill-rule="evenodd" clip-rule="evenodd" d="M30.3427 103.589C23.2357 101.698 24.5307 96.1931 24.6376 89.2962C24.9381 69.6655 23.6136 46.7906 24.8203 28.1093L0 28.0587C0.402752 48.4448 0.221514 68.876 0.30981 89.2935C0.376419 104.964 2.01379 125.244 29.2244 125.589C52.8737 125.888 56.1282 110.147 61.6846 92.6866L73.3117 57.3729C75.0203 52.0031 74.9073 49.121 82.1429 49.6469C87.2037 55.6367 84.8987 75.7469 84.9126 85.414C84.9312 98.6245 85.1388 112.013 84.9699 125.201L109.388 125.07C109.897 104.895 109.53 84.3553 109.699 64.0772C109.865 44.0544 105.233 28.5655 82.0392 27.2514C52.2494 25.5644 49.4518 52.006 40.4038 81.6481C38.342 88.4029 35.9301 100.725 30.3427 103.589Z" fill="#FF2F63"/>
<path fill-rule="evenodd" clip-rule="evenodd" d="M25.1976 18.2866L81.3863 18.7347L81.188 0L25.1016 0.274533L25.1976 18.2866Z" fill="#FF2F63"/>
</svg>
