<svg width="93" height="80" viewBox="0 0 93 80" fill="none" xmlns="http://www.w3.org/2000/svg">
<path fill-rule="evenodd" clip-rule="evenodd" d="M0 79.3479L23.4185 79.4721L23.4619 49.2278C71.0471 49.3821 63.5729 44.4044 69.2765 79.2727L92.1018 79.4681C91.713 72.8635 90.641 62.124 89.2639 55.8569C86.9186 45.1762 83.8669 45.2199 78.1448 39.7136C84.942 34.8766 87.075 33.9491 88.8997 24.2615C90.1591 17.5736 91.699 6.9284 91.3985 0.0875089L68.8986 0C67.3046 7.5758 67.7941 24.7204 61.917 28.5711C56.3962 32.1897 31.7292 30.1721 23.3442 30.362L23.3303 0.363376L0.0541562 0.0192093L0 79.3479Z" fill="#FF2F63"/>
</svg>
