<svg width="118" height="98" viewBox="0 0 118 98" fill="none" xmlns="http://www.w3.org/2000/svg">
<path fill-rule="evenodd" clip-rule="evenodd" d="M0 97.6295L24.3727 97.5872C28.0377 92.5999 41.1363 47.4183 44.6356 36.0628C47.0211 28.3244 48.8151 21.4535 58.4641 21.4044C68.7033 21.3538 70.3762 27.2726 72.5541 34.8647C74.6469 42.1605 76.9721 48.8689 79.1191 56.2357C81.28 63.6476 89.6774 93.216 92.5695 97.5366L117.119 97.6321C114.803 87.0498 102.733 52.1761 98.5969 38.9983C91.6881 16.9908 87.9532 -0.271334 58.4687 0.00323022C22.1063 0.341997 22.2627 30.5865 9.47218 68.0461C6.43295 76.9469 1.80154 88.9896 0 97.6295Z" fill="#FF2F63"/>
</svg>
