<svg width="118" height="81" viewBox="0 0 118 81" fill="none" xmlns="http://www.w3.org/2000/svg">
<path fill-rule="evenodd" clip-rule="evenodd" d="M0.0763576 80.1249L22.9076 80.6345C22.9819 71.1723 21.2673 25.4252 24.9153 20.5363L29.6523 20.2467C39.7009 34.5514 31.9479 70.966 60.9848 69.473C79.1706 68.5373 80.4996 50.6126 85.3466 32.8055C87.1543 26.1682 86.0794 19.9448 94.2615 20.4748L95.0793 80.5744L117.702 80.5074C118.024 65.7246 117.794 50.7711 117.75 35.9173C117.705 21.0007 118.231 6.71648 104.075 2.01199C88.7948 -3.06677 74.2601 2.16499 69.0925 11.8526C66.7797 16.1855 63.6275 32.4313 61.939 39.5249L60.19 46.6717C58.7989 49.8668 60.0398 47.4066 59.0143 48.6688C55.0363 41.8252 53.3558 21.6768 49.2492 12.5492C44.8205 2.70724 28.3991 -3.46838 14.0719 2.10897C-0.647107 7.84068 -0.0196713 19.1143 0.0113097 34.9475C0.0407416 49.8041 0.555013 65.3599 0.0763576 80.1249Z" fill="#FF2F63"/>
</svg>
