<svg width="140" height="99" viewBox="0 0 140 99" fill="none" xmlns="http://www.w3.org/2000/svg">
<path fill-rule="evenodd" clip-rule="evenodd" d="M0 98.1794L24.4701 98.3773C25.0185 76.1403 23.8507 53.6247 24.4223 31.3427C24.5369 26.8267 25.1394 20.6223 31.1791 22.0266C42.055 24.555 38.957 74.3878 62.9549 79.3354C75.7686 81.9786 85.3013 77.6881 89.4744 69.6301L103.024 31.1391C105.193 24.8487 104.689 21.0703 113.04 22.7232C116.255 28.0765 114.993 86.8962 114.557 97.872L138.948 98.2667C139.112 80.2124 138.946 62.5447 138.967 44.8769C138.987 26.8527 140.846 10.2162 125.124 3.21547C113.496 -1.96438 91.7344 -1.36877 83.8885 15.2745C80.6711 22.1017 79.4149 29.2882 76.952 36.2944C74.98 41.9086 72.7061 52.5906 70.1827 57.1926L67.7412 52.8897C67.1355 51.0443 66.6818 49.1197 66.1831 47.4791L56.0583 15.6228C50.3051 3.20728 33.3943 -4.5502 14.9002 2.94227C-1.52745 9.59739 0.131645 25.9046 0.0139172 43.907C-0.102261 61.6007 0.881408 80.7069 0 98.1794Z" fill="#FF2F63"/>
</svg>
