<svg width="103" height="82" viewBox="0 0 103 82" fill="none" xmlns="http://www.w3.org/2000/svg">
<path fill-rule="evenodd" clip-rule="evenodd" d="M76.7136 56.8675C72.6086 62.8806 65.9911 61.527 57.4915 61.5147C50.5858 61.5038 38.8595 62.1485 32.5115 61.3753C23.5921 60.2894 23.9949 54.2258 23.998 47.1773C24.0119 22.9992 21.6806 20.8053 44.2874 20.7725C50.8011 20.7629 63.7915 20.1265 69.5679 20.9625C77.5656 22.1195 77.7902 28.1735 77.8026 35.5226C77.8103 40.2407 78.9071 53.6534 76.7136 56.8675ZM0.735911 57.8375C2.24468 69.3036 11.1409 78.2808 23.5116 80.1645C34.6585 81.8638 58.4581 81.129 70.7064 80.8845C105.108 80.1933 103.258 51.4474 101.17 24.0633C100.23 11.7256 91.3103 3.70581 78.7893 1.30029C70.1317 -0.362123 40.7788 -0.150436 31.0461 0.402791C15.7322 1.27293 6.54794 7.24239 2.28496 17.9586C-0.506425 24.9784 -0.36856 49.4393 0.735911 57.8375Z" fill="#FF2F63"/>
</svg>
