<svg width="116" height="100" viewBox="0 0 116 100" fill="none" xmlns="http://www.w3.org/2000/svg">
<path fill-rule="evenodd" clip-rule="evenodd" d="M25.2369 66.3593C24.4794 58.0077 24.9426 46.7819 25.0448 38.1939C25.2989 16.8393 39.1024 21.3184 71.0856 21.272C83.2689 21.2542 90.3186 21.9236 91.2372 33.331C91.9249 41.8602 91.3596 52.7622 91.2991 61.5182C91.1566 82.366 78.2159 78.2968 44.6666 78.2299C33.8388 78.2066 26.0873 75.73 25.2369 66.3593ZM30.2016 0.832611C14.0326 2.63709 4.17141 11.5324 1.23751 25.0735C-0.196907 31.6931 -1.69329 72.397 4.89016 83.0149C7.36863 87.0117 7.96192 87.2358 11.2072 90.0593C17.075 95.1654 20.9522 97.3688 30.2512 98.493C40.1279 99.6869 75.8133 99.8111 85.7443 98.6091C101.512 96.7008 111.664 87.8546 114.577 74.7C116.291 66.9589 116.344 32.6985 114.722 25.023C111.866 11.4969 101.687 2.41303 85.9472 0.833945C75.3207 -0.23153 40.5384 -0.32302 30.2016 0.832611Z" fill="#FF2F63"/>
</svg>
