<svg width="102" height="108" viewBox="0 0 102 108" fill="none" xmlns="http://www.w3.org/2000/svg">
<path fill-rule="evenodd" clip-rule="evenodd" d="M76.0626 56.4834C73.2774 61.9105 65.6329 60.9283 57.4895 60.9352C21.6244 60.9598 23.8318 63.5634 23.9325 46.7849C23.9666 41.1515 22.9287 29.9053 25.2678 25.1708C28.2977 19.0348 36.1344 20.4321 44.2839 20.4144C70.5015 20.3597 77.4382 17.0499 77.4134 35.1343C77.4056 40.0259 77.7836 53.1258 76.0626 56.4834ZM24.422 80.5673C57.567 79.4964 93.1223 87.5625 100.178 61.1114C101.648 55.5996 101.515 25.2787 100.124 19.7929C97.2691 8.54803 88.0662 1.55963 73.279 0.662176C62.8647 0.0310875 34.7479 -0.519424 25.0989 0.850667C11.774 2.7412 3.04362 10.0328 0.808344 21.9579C-0.646212 29.7195 0.295576 93.9171 0.348243 107.276L24.0688 106.966L24.422 80.5673Z" fill="#FF2F63"/>
</svg>
