<svg width="113" height="99" viewBox="0 0 113 99" fill="none" xmlns="http://www.w3.org/2000/svg">
<path fill-rule="evenodd" clip-rule="evenodd" d="M76.6404 39.3032C70.249 41.37 46.3302 40.65 38.0133 39.8291L37.9157 59.875L84.0154 59.4748C106.229 60.3395 119.14 35.8814 109.178 16.1838C99.241 -3.46467 75.3454 0.260376 47.7506 0.316382C27.8857 0.355996 2.79728 0.752155 0.921382 28.7851C0.154604 40.2362 -0.805794 89.8081 1.16614 98.7868L24.2113 98.8947C29.5741 84.7457 18.6595 30.3723 29.65 23.3415C35.5194 19.5864 63.1946 21.3049 73.1101 21.3227C81.1063 21.3377 86.5156 22.1558 87.6185 28.6921C88.9151 36.3744 84.5483 39.5573 76.6404 39.3032Z" fill="#FF2F63"/>
</svg>
