<svg width="99" height="111" viewBox="0 0 99 111" fill="none" xmlns="http://www.w3.org/2000/svg">
<path fill-rule="evenodd" clip-rule="evenodd" d="M0.805377 0C0.424311 15.4248 -2.3299 58.007 5.17523 68.9458C10.5458 76.773 20.373 80.024 33.9349 80.1647C47.1111 80.3013 62.3181 80.7207 75.3099 80.0404C74.2674 99.0182 59.2618 87.7761 21.067 91.0955L21.1227 109.487C28.7905 110.833 62.3413 110.335 71.4187 109.769C86.6149 108.818 96.6884 101.485 98.239 88.7418L98.4264 0.101116L74.8778 0.086175C74.1915 69.245 81.5185 60.9371 49.368 60.9138C24.5507 60.8961 24.3215 63.5311 24.6143 40.663C24.7816 27.4648 25.1518 13.4564 24.6468 0.0382852L0.805377 0Z" fill="#FF2F63"/>
</svg>
