<svg width="112" height="99" viewBox="0 0 112 99" fill="none" xmlns="http://www.w3.org/2000/svg">
<path fill-rule="evenodd" clip-rule="evenodd" d="M85.9445 54.2326C85.3621 76.3194 88.6058 77.7017 61.8258 77.699C54.3919 77.6976 43.5595 78.1772 36.4974 77.5597C26.9831 76.7279 26.3341 72.0835 25.8678 64.6798L2.20148 64.8205C2.86757 83.9103 8.04758 95.2849 28.7196 97.9691C39.2222 99.3337 81.1688 99.2968 90.017 96.4829C108.488 90.6077 110.602 77.4231 110.612 57.067C110.619 40.2981 112.145 15.8838 110.153 0L85.7293 0.211702L85.5774 33.3412C69.7461 33.0898 51.8949 34.0952 36.4369 33.2783C19.1201 32.3618 26.4239 12.9536 24.4721 0.0545597L1.43157 0.109253C-8.89128 70.1984 38.395 51.2875 85.9445 54.2326Z" fill="#FF2F63"/>
</svg>
