<svg width="122" height="124" viewBox="0 0 122 124" fill="none" xmlns="http://www.w3.org/2000/svg">
<path fill-rule="evenodd" clip-rule="evenodd" d="M72.7828 36.9624C96.6676 35.8423 98.5095 34.781 98.5637 54.7859C98.6288 79.1648 101.013 78.0419 73.0323 77.5652L72.7319 51.8763L72.7828 36.9624ZM34.2085 77.516C25.839 77.6294 23.5418 75.9752 23.2955 68.424C23.0987 62.4491 23.3637 55.9305 23.4287 49.9065C23.5821 35.8327 24.798 36.3982 49.4868 37.0047L49.6076 77.3371L34.2085 77.516ZM73.4118 97.1467C111.965 95.416 121.638 98.9498 121.773 56.7255C121.896 18.3288 114.841 17.1527 72.6729 16.93L72.6527 0L49.4883 0.0218772L49.1568 16.5559C7.06457 16.5818 -0.0735074 20.0583 0.0612597 57.6955C0.117025 73.2337 -1.55275 82.6821 9.37733 91.2346C19.4492 99.115 34.9877 96.8926 49.6727 97.3761L50.1203 123.334L72.6838 123.467L73.4118 97.1467Z" fill="#FF2F63"/>
</svg>
