<svg width="136" height="116" viewBox="0 0 136 116" fill="none" xmlns="http://www.w3.org/2000/svg">
<path fill-rule="evenodd" clip-rule="evenodd" d="M80.3127 29.2009C113.566 26.3897 110.559 31.2963 110.865 57.1955C111.221 87.3102 113.989 85.6409 80.0323 85.3869L80.3127 29.2009ZM24.4788 48.4669C24.4788 27.5822 28.1578 28.2446 57.0011 28.9481L57.2366 85.5427C21.5078 84.1097 24.4788 91.2949 24.4788 48.4669ZM56.8834 8.19049C7.1853 7.63317 -0.0627428 12.4141 0.14483 57.1955C0.223831 74.1652 -2.13374 87.593 9.55847 98.0019C22.0701 109.144 36.7722 105.709 56.9067 106.448L57.1018 115.254L79.9813 115.504L80.1377 106.328C97.9874 105.933 114.873 108.501 125.968 98.6643C137.477 88.459 135.126 73.8128 135.087 57.1955C135.051 41.589 137.375 25.9566 126.228 16.4602C113.918 5.97349 99.4543 8.02113 79.9518 8.21784L79.8991 0.00680329L56.9996 0L56.8834 8.19049Z" fill="#FF2F63"/>
</svg>
