<svg width="100" height="80" viewBox="0 0 100 80" fill="none" xmlns="http://www.w3.org/2000/svg">
<path fill-rule="evenodd" clip-rule="evenodd" d="M0 0.292408C1.49173 2.48756 6.31708 18.2306 8.46561 22.823C10.5522 27.2857 11.4397 29.1367 14.7097 32.8481C19.0765 37.8053 21.0702 37.8134 22.8206 40.8896C12.5907 45.2663 3.31814 65.4488 0.125558 79.7795L23.6354 79.27C30.1925 67.5184 32.0715 49.7577 50.0188 50.0719C69.6096 50.4148 69.8839 71.1491 76.4332 79.5814L99.4613 79.438C95.5019 65.4816 86.756 45.6488 76.0768 40.876L80.6899 36.4625C89.8495 28.466 96.3756 10.5455 99.2073 0L75.3117 0.00827066C70.8876 11.9949 66.0328 30.709 49.994 30.8346C33.3851 30.9644 27.9774 13.8526 24.1373 0.157143L0 0.292408Z" fill="#FF2F63"/>
</svg>
