<svg width="110" height="99" viewBox="0 0 110 99" fill="none" xmlns="http://www.w3.org/2000/svg">
<path fill-rule="evenodd" clip-rule="evenodd" d="M29.5868 48.8014C26.8543 53.2327 22.142 52.6645 11.923 70.9115C7.44778 78.9011 3.06402 89.3263 0 98.1561C30.2359 98.0809 21.4961 103.094 35.292 76.9409C39.0422 69.8309 44.5955 61.1172 53.6544 60.3809C72.5156 58.8496 75.9747 88.6078 85.2782 97.898L109.262 98.0346C105.563 86.0698 92.1435 56.5971 79.4336 50.6182L81.7743 48.1417C90.1639 39.9279 91.2048 38.9458 96.9518 27.5506C100.078 21.3559 107.259 6.37646 108.506 0L84.1783 0.285471C75.3426 9.84606 73.4559 38.7368 54.5126 38.4295C35.8047 38.1249 33.3169 10.6438 24.7801 0.372847L0.892215 0.200764C0.935588 4.14848 9.40428 22.2779 11.7464 26.7884C16.3409 35.6373 21.9392 45.1187 29.5868 48.8014Z" fill="#FF2F63"/>
</svg>
