<svg width="124" height="99" viewBox="0 0 124 99" fill="none" xmlns="http://www.w3.org/2000/svg">
<path fill-rule="evenodd" clip-rule="evenodd" d="M73.5829 77.6158C73.3242 77.2128 72.8982 77.0297 72.5326 75.3455L72.3266 0.337363L49.0646 0.0177419L49.2118 58.836C49.2381 62.083 49.2504 65.2904 49.2163 68.5374C49.1435 75.2758 50.2201 75.7881 47.8919 77.195C38.3281 77.5229 26.3509 79.4652 24.1574 71.6545C21.8555 67.3967 22.8236 9.81056 23.2372 0.301879L0.0310112 0.0477564L0 74.4508C0.458518 94.8205 20.3839 98.1986 37.3661 98.2423C50.8428 98.2778 91.5968 99.641 101.887 97.3065C110.714 95.3039 116.337 90.0886 119.714 83.902C124.052 75.9533 123.066 67.2014 123.044 57.8662C122.999 38.9472 123.732 18.8316 122.743 0.0628304L99.0198 0C97.1501 15.0232 100.468 67.3613 97.6411 73.2268C94.3959 79.9612 82.8974 76.8276 73.5829 77.6158Z" fill="#FF2F63"/>
</svg>
