<svg width="129" height="93" viewBox="0 0 129 93" fill="none" xmlns="http://www.w3.org/2000/svg">
<path fill-rule="evenodd" clip-rule="evenodd" d="M117.843 59.9903C115.341 56.0672 116.172 8.35847 116.867 0.400193L94.7468 0.390589C94.6694 10.5386 94.5036 20.6511 94.5284 30.81C94.5346 33.9941 95.9365 58.0274 93.1653 60.0928L70.3106 59.9206L69.8893 0.0777709L47.4204 0.184356L47.4234 60.3645C39.7541 60.3645 29.7782 61.8289 24.9746 57.9659C21.6612 52.2219 23.9259 10.4813 23.4457 0L0.429947 0.3455C-0.457658 14.0874 0.315366 29.4699 0.247208 43.418C0.169755 58.9958 -0.544416 69.1493 11.3383 75.8877C22.1956 82.0429 43.0769 79.7248 56.9408 79.6223C72.563 79.5062 89.4026 79.229 105.113 79.7002L105.345 92.6662L128.27 92.4736L127.802 60.4452L117.843 59.9903Z" fill="#FF2F63"/>
</svg>
