<svg width="140" height="113" viewBox="0 0 140 113" fill="none" xmlns="http://www.w3.org/2000/svg">
<path fill-rule="evenodd" clip-rule="evenodd" d="M76.142 77.5256C74.7061 76.2743 75.4172 77.796 74.6396 75.4096L74.4738 68.6425C74.5094 65.4106 74.5125 62.1759 74.5016 58.9426L74.5683 0.527321L51.5975 0.300545C52.3256 12.8486 51.6393 26.8281 51.6114 39.5455C51.5975 46.0135 51.5696 52.476 51.5325 58.9426L51.1296 76.2005C51.0924 76.3891 50.86 77.0461 50.8275 76.9218C50.7965 76.7989 50.5936 77.374 50.4713 77.598C14.2483 76.8194 27.31 83.4718 24.6704 0.419403L0.390587 0.0533591C-0.479977 15.8347 0.378135 33.2988 0.367291 49.2441C0.356448 65.5199 -1.56897 82.114 9.51756 91.3727C20.838 100.828 39.9935 98.2859 58.3667 98.2504C77.451 98.2135 96.935 98.6015 115.948 98.2887L116.033 111.835L139.687 112.036L139.927 77.4846L126.828 77.3794L126.695 0.183022L102.391 0L102.199 77.3548L76.142 77.5256Z" fill="#FF2F63"/>
</svg>
