<svg width="104" height="80" viewBox="0 0 104 80" fill="none" xmlns="http://www.w3.org/2000/svg">
<path fill-rule="evenodd" clip-rule="evenodd" d="M36.2988 44.4946C46.6232 44.1462 59.0448 44.1408 69.394 44.4153C75.1689 44.5697 78.7564 45.0833 79.9926 49.7086C81.2039 54.2437 79.5573 57.4933 76.3136 59.5068C70.5434 61.7524 44.4205 60.9521 36.35 60.265L36.2988 44.4946ZM0.266243 19.4996L13.72 19.8657L13.9832 79.804C32.4215 79.815 50.8907 79.8491 69.3274 79.8204C114.005 79.7535 110.069 36.2057 87.0719 27.8949C76.4269 24.0483 49.7926 25.7858 36.1966 25.4252L35.9518 0.00960464L0 0L0.266243 19.4996Z" fill="#FF2F63"/>
</svg>
