<svg width="125" height="99" viewBox="0 0 125 99" fill="none" xmlns="http://www.w3.org/2000/svg">
<path fill-rule="evenodd" clip-rule="evenodd" d="M45.8364 55.8514C56.9074 55.3801 68.7653 55.7762 79.9324 55.7448C91.2729 55.7134 100.338 55.8199 100.395 66.752C100.456 78.3493 90.576 77.9476 78.8311 77.8575C67.7957 77.7728 56.7463 77.7428 45.8642 77.6963L45.8364 55.8514ZM0.164284 20.5595L21.6558 20.8491L21.6758 98.3679C42.6948 98.5988 63.6288 98.2449 84.3411 98.2559C105.182 98.2668 118.634 93.3656 122.943 77.4231C127.8 59.4549 120.561 43.8128 106.477 38.4608C93.9666 33.7058 61.6427 35.5145 45.9834 35.3943L45.5868 0.113388L0 0L0.164284 20.5595Z" fill="#FF2F63"/>
</svg>
