<svg width="122" height="81" viewBox="0 0 122 81" fill="none" xmlns="http://www.w3.org/2000/svg">
<path fill-rule="evenodd" clip-rule="evenodd" d="M23.567 60.5396L23.6445 44.6954C32.1549 44.4796 40.5742 44.6231 49.0413 44.4332C57.8228 44.2365 65.1545 44.242 65.3837 52.4216C65.6517 61.963 57.4589 60.6721 49.0367 60.6134C40.5526 60.5547 32.0604 60.6052 23.567 60.5396ZM0.636562 79.4628C13.3279 81.1675 40.3109 79.9039 54.5374 79.8862C99.737 79.8288 95.1842 37.2536 73.0064 28.3391C62.2313 24.0076 37.318 25.9677 23.7715 25.353L23.406 0.246094L0 0.42498L0.636562 79.4628Z" fill="#FF2F63"/>
<path fill-rule="evenodd" clip-rule="evenodd" d="M98.1629 79.8027L121.608 79.4899L121.355 0.143403L97.9336 0L98.1629 79.8027Z" fill="#FF2F63"/>
</svg>
