<svg width="134" height="100" viewBox="0 0 134 100" fill="none" xmlns="http://www.w3.org/2000/svg">
<path fill-rule="evenodd" clip-rule="evenodd" d="M23.6245 78.5103L23.7422 56.5738C48.9127 56.6995 75.6227 52.1207 75.8101 67.4266C76.01 83.6915 51.8822 77.8395 23.6245 78.5103ZM72.1206 98.1915C84.1567 98.1191 93.2556 89.8234 96.8091 82.1247C101.015 73.0149 101.196 58.1788 95.2788 50.1604C79.8255 29.2197 54.9275 38.921 25.1036 36.062C23.2169 35.4268 23.0203 37.9553 23.2651 28.6296L23.5035 0.968262L0 1.06671L0.212086 98.8922L72.1206 98.1915Z" fill="#FF2F63"/>
<path fill-rule="evenodd" clip-rule="evenodd" d="M108.154 98.6288L131.239 98.7599L131.174 1.35911L107.703 1.07764L107.742 77.113L108.154 98.6288Z" fill="#FF2F63"/>
<path fill-rule="evenodd" clip-rule="evenodd" d="M107.743 77.113L107.705 1.07762L131.176 1.35909L131.241 98.7599L108.156 98.6287L107.743 77.113ZM107.609 99.2434L131.926 99.5904C133.402 89.5886 133.56 8.50047 131.56 0.677423C125.243 0.0395042 112.674 -0.535563 106.862 0.86458C106.023 13.0438 105.363 91.6513 107.609 99.2434Z" fill="#FF2F63"/>
</svg>
