<svg width="105" height="99" viewBox="0 0 105 99" fill="none" xmlns="http://www.w3.org/2000/svg">
<path fill-rule="evenodd" clip-rule="evenodd" d="M25.2292 77.8001L24.969 56.1027C35.6001 55.5932 46.8649 55.8938 57.6385 55.8268C69.4686 55.7531 79.6008 54.9089 79.9106 66.6291C80.2219 78.4409 69.8079 77.9668 58.7431 77.9573C47.6705 77.9477 36.2476 78.2646 25.2292 77.8001ZM0 98.3543C21.0547 98.1754 42.1341 98.1766 63.1376 98.3187C73.8741 98.3925 82.3736 98.0688 90.2753 93.4668C111.544 81.0745 108.52 46.243 85.5631 38.1276C72.3094 33.4436 41.1738 36.2931 24.8701 35.3834L24.5231 0.0450885L0.463202 0L0 98.3543Z" fill="#FF2F63"/>
</svg>
