<svg width="99" height="82" viewBox="0 0 99 82" fill="none" xmlns="http://www.w3.org/2000/svg">
<path fill-rule="evenodd" clip-rule="evenodd" d="M73.8338 30.5631C71.8479 32.5083 73.4419 31.8224 68.6615 32.026L23.0514 32.1079L23.1412 49.8207C31.9832 49.4095 41.011 49.7006 49.884 49.5176C53.752 49.437 71.7271 48.2826 74.0786 51.0952C75.6322 64.6062 63.2786 61.5712 43.285 61.6736C29.1763 61.746 14.2683 62.0765 0 61.6189L0.0650668 81.0979C72.5698 78.4957 98.0454 95.4913 98.0315 40.1344C98.0268 24.8121 99.9182 3.17897 71.5133 0.742036C50.5919 -1.05288 22.5572 1.00965 0.345435 0.724161L0.886051 20.2499C14.8786 20.0586 29.2491 20.318 43.285 20.3576C55.2545 20.3918 76.5818 17.2051 73.8338 30.5631Z" fill="#FF2F63"/>
<path fill-rule="evenodd" clip-rule="evenodd" d="M74.0802 51.0953C71.7287 48.2827 53.7536 49.4371 49.8856 49.5177C41.0127 49.7008 31.9848 49.4096 23.1429 49.8208L23.053 32.108L68.6632 32.0261C73.4435 31.8225 71.8496 32.5084 73.8354 30.5632L22.3544 31.3103C21.7069 37.0802 20.9541 44.9758 22.9508 50.463L74.0802 51.0953Z" fill="#FF2F63"/>
</svg>
