<svg width="109" height="99" viewBox="0 0 109 99" fill="none" xmlns="http://www.w3.org/2000/svg">
<path fill-rule="evenodd" clip-rule="evenodd" d="M0.173493 21.4316C16.6538 20.556 35.4391 21.25 52.2835 21.2486C73.1367 21.2459 85.2999 17.2217 83.5339 38.9095L26.6049 39.0339L26.924 59.5006L84.0792 59.551C83.2691 78.7965 82.0035 77.6682 52.2835 77.7638C35.326 77.8184 17.7784 78.1326 0.875216 77.6832L0.52668 98.5993C13.0988 98.6253 74.0786 99.2768 81.4427 98.0611C111.352 93.1271 108.032 67.986 108.046 50.1652C108.058 32.7038 112.211 6.32648 82.73 1.11249C72.6534 -0.670136 15.0536 0.258707 0 0.123474L0.173493 21.4316Z" fill="#FF2F63"/>
</svg>
