<svg width="124" height="81" viewBox="0 0 124 81" fill="none" xmlns="http://www.w3.org/2000/svg">
<path fill-rule="evenodd" clip-rule="evenodd" d="M60.6591 55.0665C60.2022 53.6869 57.4309 25.1334 64.9221 21.2635C69.3028 19.0001 78.9565 19.8499 84.5919 19.9031C103.799 20.0862 100.343 25.7045 100.549 44.3995C100.62 50.8074 101.286 57.4529 95.6227 59.939C94.7707 60.3133 63.8966 64.8347 60.6591 55.0665ZM24.2612 49.4427L36.714 49.7514C38.4458 63.8157 39.5906 69.5324 50.0296 75.8542C59.5005 81.59 73.6944 80.4793 86.7745 80.426C120.943 80.2867 124.17 68.285 123.902 39.5486C123.634 10.651 120.722 -0.108854 85.6778 0.00179175C64.888 0.0673594 36.8286 -1.75056 36.8441 30.9554L23.8786 31.1315L23.7236 0.403586L0 0.436135L0.306708 79.9727L23.7732 79.9495L24.2612 49.4427Z" fill="#FF2F63"/>
</svg>
