<svg width="140" height="99" viewBox="0 0 140 99" fill="none" xmlns="http://www.w3.org/2000/svg">
<path fill-rule="evenodd" clip-rule="evenodd" d="M71.9796 21.4037C77.4942 20.4038 94.1976 20.9597 100.854 21.0471C111.649 21.1878 115.678 24.0318 116.075 33.494C116.431 41.9823 116.076 51.1727 116.053 59.7375C115.996 79.5239 111.491 78.3957 77.646 77.6184C57.3519 77.1526 62.4436 62.1567 62.4142 38.3803C62.4049 30.1051 62.9951 23.0319 71.9796 21.4037ZM0.0898569 97.954C7.33165 97.9731 17.6793 99.2571 24.4176 97.2955L24.5214 59.4562L38.7076 59.5941C37.442 100.608 65.3434 98.2311 94.1976 98.3172C136.707 98.4415 139.877 85.6913 139.994 50.0294C140.105 15.8891 138.542 0.0449892 96.3972 0.162465C80.9796 0.20481 62.3399 -1.61609 51.9287 5.96927C41.0374 13.9057 38.0508 22.6153 38.5465 38.9034L24.4486 38.846L24.5942 0.665107L0 0.240369L0.0898569 97.954Z" fill="#FF2F63"/>
</svg>
