<svg width="100" height="81" viewBox="0 0 100 81" fill="none" xmlns="http://www.w3.org/2000/svg">
<path fill-rule="evenodd" clip-rule="evenodd" d="M24.71 30.8251C20.447 16.4562 37.059 19.8792 50.2708 19.8928C66.0541 19.9079 75.6613 16.3467 75.1997 31.9832C65.0658 33.2099 31.8666 33.6677 24.71 30.8251ZM98.6336 80.9146C98.9078 66.1141 100.793 32.0681 98.2045 19.1594C93.7541 -3.03934 66.4166 0.0777482 49.171 0.233471C32.7542 0.382365 5.99131 -3.50238 0.828333 19.8069C-1.23345 29.1107 0.506152 38.0511 6.58152 43.7228C13.4082 50.0951 21.5809 50.3723 33.8835 50.8777C25.483 64.8395 22.6436 62.5407 3.46947 62.161L3.62127 80.8191L36.3062 80.9434C37.2821 78.4764 45.7228 69.2161 48.4987 65.7C52.0987 61.1404 57.5498 54.8855 60.2126 50.069L74.0596 50.9598C74.2083 51.1497 74.3338 51.4448 74.3864 51.5868L75.3825 80.7001L98.6336 80.9146Z" fill="#FF2F63"/>
</svg>
