<svg width="114" height="100" viewBox="0 0 114 100" fill="none" xmlns="http://www.w3.org/2000/svg">
<path fill-rule="evenodd" clip-rule="evenodd" d="M50.8368 60.1498C50.716 81.0659 47.3375 78.6508 1.19601 78.0894L1.52753 98.5219C21.0223 98.6244 51.1915 101.881 63.5839 91.4735C79.1394 78.4132 74.2088 61.5118 74.7696 39.8827C63.0727 37.7736 30.1508 43.4178 25.2187 35.1823C14.1445 16.6935 54.5096 21.0046 64.202 21.0456C73.5676 21.0852 82.916 19.2902 86.7484 25.5902C89.312 29.8043 88.4043 43.6569 88.3842 49.3558C88.3253 65.3242 88.0651 82.533 88.8412 98.4072L112.648 98.5725C114.146 89.7058 113.871 32.076 112.157 23.3774C106.669 -4.493 75.8787 0.383558 53.2022 0.248325C31.5372 0.119921 1.16193 -2.3593 0.0326779 28.9547C-1.20811 63.3586 33.1931 59.4408 50.8368 60.1498Z" fill="#FF2F63"/>
</svg>
