<svg width="100" height="116" viewBox="0 0 100 116" fill="none" xmlns="http://www.w3.org/2000/svg">
<path fill-rule="evenodd" clip-rule="evenodd" d="M24.0875 65.5258C24.0906 51.4233 34.5792 54.4435 49.8389 54.4435C55.1475 54.4408 69.0053 53.934 72.2645 55.2877C77.2416 57.353 76.1093 61.8035 73.5549 64.7813C70.8797 66.426 28.0562 65.5354 24.0875 65.5258ZM96.8247 114.618L96.5273 95.8877C84.6739 93.8537 49.9164 96.1323 34.3608 95.5203C25.9588 95.1911 24.2378 92.0807 24.2131 84.4735C40.176 84.1907 60.3321 85.5103 75.6569 84.1675C107.818 81.3508 107.597 36.967 72.909 35.3374C62.1632 34.8319 31.193 34.0697 21.8414 35.7772C15.1278 37.0038 10.0361 40.8313 6.42065 44.4512C-2.88293 53.7659 -0.889237 95.6542 4.9073 103.91C12.4419 114.641 26.0533 115.025 44.3383 114.88C60.9611 114.748 80.6696 115.643 96.8247 114.618Z" fill="#FF2F63"/>
<path fill-rule="evenodd" clip-rule="evenodd" d="M28.6333 0.765358C13.8538 5.64878 21.2148 28.0128 37.991 20.9588C51.7047 15.1916 43.2036 -4.0484 28.6333 0.765358Z" fill="#FF2F63"/>
<path fill-rule="evenodd" clip-rule="evenodd" d="M61.8016 0.93205C47.5256 6.1679 55.0292 26.4269 71.2493 21.1501C73.5155 20.4124 76.6772 17.6532 77.5911 16.0072C79.12 13.2547 79.1603 9.83553 77.8761 6.63774C76.0204 2.01932 68.8947 -1.6688 61.8016 0.93205Z" fill="#FF2F63"/>
</svg>
