<svg width="109" height="130" viewBox="0 0 109 130" fill="none" xmlns="http://www.w3.org/2000/svg">
<path fill-rule="evenodd" clip-rule="evenodd" d="M24.6841 92.0606C29.0602 89.9242 80.5971 91.073 86.1334 91.0703L85.7198 71.7456C75.4775 72.154 65.043 71.441 54.6706 71.6377C51.0551 71.7046 27.1719 73.3793 24.8127 70.6418C25.6321 51.3445 27.5732 53.5096 55.7705 53.4932C73.2391 53.4836 90.8316 53.3005 108.286 53.6188L108.24 32.4008C92.4039 32.6358 37.8417 31.4105 27.3701 32.9678C-4.09102 37.6504 0.12405 63.4363 0.257269 81.339C0.378094 97.8853 -3.34279 125.619 27.5685 129.4L108.412 129.658L108.302 108.927C99.4242 108.954 38.7526 109.6 32.8275 108.436C23.8802 106.678 24.712 100.832 24.6841 92.0606Z" fill="#FF2F63"/>
<path fill-rule="evenodd" clip-rule="evenodd" d="M37.8774 0.274197C22.7448 3.06082 25.5455 23.033 42.5494 20.622C56.0865 18.7028 53.7381 -2.64766 37.8774 0.274197Z" fill="#FF2F63"/>
<path fill-rule="evenodd" clip-rule="evenodd" d="M69.8053 0.297344C56.2139 2.82443 58.0851 22.9441 74.4105 20.5946C88.5936 18.5538 85.5668 -2.63408 69.8053 0.297344Z" fill="#FF2F63"/>
<path fill-rule="evenodd" clip-rule="evenodd" d="M24.6875 92.0608L86.4992 91.9639C87.8329 87.3318 87.7183 75.6376 86.0081 71.1681L24.8161 70.6421C27.1753 73.3795 51.0585 71.7048 54.674 71.6379C65.0464 71.4412 75.4808 72.1543 85.7231 71.7458L86.1367 91.0705C80.6004 91.0732 29.0636 89.9244 24.6875 92.0608Z" fill="#FF2F63"/>
</svg>
